<svg width="89" height="26" viewBox="0 0 89 26" fill="none" xmlns="http://www.w3.org/2000/svg">
<path d="M0.15 25V0.499998H3.475V22.025H14.71V25H0.15ZM26.7746 25.42C24.9546 25.42 23.3329 25.0933 21.9096 24.44C20.4863 23.7633 19.2729 22.8533 18.2696 21.71C17.2896 20.5433 16.5313 19.19 15.9946 17.65C15.4813 16.11 15.2246 14.465 15.2246 12.715C15.2246 10.3117 15.6796 8.165 16.5896 6.275C17.5229 4.36167 18.8529 2.85667 20.5796 1.76C22.3063 0.639999 24.3713 0.0799996 26.7746 0.0799996C28.5713 0.0799996 30.1813 0.406666 31.6046 1.06C33.0513 1.71333 34.2763 2.62333 35.2796 3.79C36.2829 4.95667 37.0413 6.29833 37.5546 7.815C38.0913 9.33167 38.3596 10.965 38.3596 12.715C38.3596 14.465 38.0913 16.11 37.5546 17.65C37.0413 19.19 36.2829 20.5433 35.2796 21.71C34.2763 22.8533 33.0629 23.7633 31.6396 24.44C30.2163 25.0933 28.5946 25.42 26.7746 25.42ZM26.7746 22.55C28.5713 22.55 30.0763 22.1183 31.2896 21.255C32.5029 20.3917 33.4129 19.225 34.0196 17.755C34.6496 16.2617 34.9646 14.5817 34.9646 12.715C34.9646 11.455 34.7779 10.2417 34.4046 9.075C34.0313 7.90833 33.4946 6.87 32.7946 5.96C32.0946 5.02667 31.2313 4.29166 30.2046 3.755C29.2013 3.21833 28.0579 2.95 26.7746 2.95C25.0713 2.95 23.6013 3.38166 22.3646 4.245C21.1513 5.10833 20.2179 6.275 19.5646 7.745C18.9346 9.215 18.6196 10.8717 18.6196 12.715C18.6196 13.975 18.7946 15.2 19.1446 16.39C19.5179 17.5567 20.0546 18.6067 20.7546 19.54C21.4546 20.4733 22.3063 21.2083 23.3096 21.745C24.3363 22.2817 25.4913 22.55 26.7746 22.55ZM51.6156 25.42C49.7256 25.42 48.0456 24.93 46.5756 23.95C45.1056 22.97 43.9506 21.5817 43.1106 19.785C42.2706 17.965 41.8506 15.83 41.8506 13.38C41.8506 10.7667 42.2939 8.46833 43.1806 6.485C44.0673 4.47833 45.3389 2.915 46.9956 1.795C48.6756 0.651666 50.6939 0.0799996 53.0506 0.0799996C54.5673 0.0799996 55.9206 0.266666 57.1106 0.639999C58.3006 1.01333 59.4206 1.49167 60.4706 2.075L59.2456 4.84C58.2656 4.30333 57.2623 3.86 56.2356 3.51C55.2323 3.16 54.1123 2.985 52.8756 2.985C51.4056 2.985 50.0989 3.38167 48.9556 4.175C47.8123 4.945 46.9023 6.08833 46.2256 7.605C45.5723 9.12167 45.2456 10.9767 45.2456 13.17C45.2456 15.13 45.5489 16.81 46.1556 18.21C46.7623 19.5867 47.6023 20.6483 48.6756 21.395C49.7489 22.1417 50.9856 22.515 52.3856 22.515C53.6923 22.515 54.8473 22.2467 55.8506 21.71C56.8773 21.15 57.6823 20.5783 58.2656 19.995V14.64H53.1906V12.015H61.4156V25H58.4756V22.55C57.6589 23.2733 56.6673 23.9383 55.5006 24.545C54.3339 25.1283 53.0389 25.42 51.6156 25.42ZM76.9846 25.42C75.1646 25.42 73.5429 25.0933 72.1196 24.44C70.6962 23.7633 69.4829 22.8533 68.4796 21.71C67.4996 20.5433 66.7412 19.19 66.2046 17.65C65.6912 16.11 65.4346 14.465 65.4346 12.715C65.4346 10.3117 65.8896 8.165 66.7996 6.275C67.7329 4.36167 69.0629 2.85667 70.7896 1.76C72.5162 0.639999 74.5812 0.0799996 76.9846 0.0799996C78.7812 0.0799996 80.3912 0.406666 81.8146 1.06C83.2612 1.71333 84.4862 2.62333 85.4896 3.79C86.4929 4.95667 87.2512 6.29833 87.7646 7.815C88.3012 9.33167 88.5696 10.965 88.5696 12.715C88.5696 14.465 88.3012 16.11 87.7646 17.65C87.2512 19.19 86.4929 20.5433 85.4896 21.71C84.4862 22.8533 83.2729 23.7633 81.8496 24.44C80.4262 25.0933 78.8046 25.42 76.9846 25.42ZM76.9846 22.55C78.7812 22.55 80.2862 22.1183 81.4996 21.255C82.7129 20.3917 83.6229 19.225 84.2296 17.755C84.8596 16.2617 85.1746 14.5817 85.1746 12.715C85.1746 11.455 84.9879 10.2417 84.6146 9.075C84.2412 7.90833 83.7046 6.87 83.0046 5.96C82.3046 5.02667 81.4412 4.29166 80.4146 3.755C79.4112 3.21833 78.2679 2.95 76.9846 2.95C75.2812 2.95 73.8112 3.38166 72.5746 4.245C71.3612 5.10833 70.4279 6.275 69.7746 7.745C69.1446 9.215 68.8296 10.8717 68.8296 12.715C68.8296 13.975 69.0046 15.2 69.3546 16.39C69.7279 17.5567 70.2646 18.6067 70.9646 19.54C71.6646 20.4733 72.5162 21.2083 73.5196 21.745C74.5462 22.2817 75.7012 22.55 76.9846 22.55Z" fill="white"/>
</svg>
