<svg width="853" height="283" viewBox="0 0 853 283" fill="none" xmlns="http://www.w3.org/2000/svg">
<g filter="url(#filter0_i_534_301)">
<path d="M89.816 218.489C72.1813 218.489 56.5812 214.326 43.0187 205.996C29.4532 197.474 18.8933 185.463 11.336 169.968C3.77867 154.279 0 135.684 0 114.184C0 93.4594 3.77867 75.1551 11.336 59.271C19.0852 43.1952 29.9387 30.7018 43.8907 21.7908C58.0345 12.6881 74.5066 8.13525 93.304 8.13525C102.992 8.13525 111.808 9.10277 119.755 11.0407C127.699 12.784 135.16 15.303 142.136 18.5948L133.707 41.8384C127.699 38.933 121.499 36.6086 115.104 34.8653C108.901 33.1221 101.539 32.2504 93.0134 32.2504C80.6106 32.2504 69.4694 35.4464 59.5867 41.8384C49.8959 48.2304 42.2426 57.4319 36.624 69.4401C31.0025 81.4483 28.1947 95.9755 28.1947 113.022C28.1947 129.292 30.9066 143.529 36.3334 155.732C41.9519 167.935 49.6052 177.427 59.296 184.205C69.1787 190.984 80.4159 194.374 93.0134 194.374C102.507 194.374 110.744 193.212 117.72 190.888C124.696 188.563 131.477 185.562 138.067 181.881L146.496 204.834C139.325 208.707 131.091 212.002 121.789 214.712C112.68 217.231 102.024 218.489 89.816 218.489ZM230.345 218.489C217.75 218.489 206.318 215.293 196.046 208.901C185.777 202.509 177.542 193.503 171.339 181.881C165.334 170.064 162.329 156.217 162.329 140.333C162.329 125.225 165.334 111.665 171.339 99.6568C177.542 87.6485 185.971 78.1565 196.627 71.1834C207.481 64.0157 219.881 60.4333 233.833 60.4333C242.553 60.4333 250.401 61.9818 257.377 65.0819C264.547 67.9874 270.747 71.6686 275.979 76.1226V63.9198H299.814V178.394C299.814 185.754 301.558 190.597 305.046 192.921C308.729 195.051 312.702 196.117 316.963 196.117L311.441 216.456C292.838 216.456 281.601 208.901 277.723 193.793C273.267 199.99 267.163 205.705 259.411 210.935C251.854 215.97 242.166 218.489 230.345 218.489ZM236.158 195.246C243.523 195.246 250.499 193.503 257.086 190.016C263.675 186.335 269.198 181.785 273.654 176.36V95.2986C268.422 91.6174 262.609 88.7119 256.214 86.5823C250.014 84.2579 243.425 83.0957 236.449 83.0957C227.147 83.0957 218.913 85.516 211.742 90.3593C204.766 95.008 199.243 101.595 195.174 110.116C191.105 118.446 189.07 128.226 189.07 139.461C189.07 150.307 191.105 159.994 195.174 168.516C199.243 176.846 204.865 183.429 212.033 188.273C219.203 192.922 227.246 195.246 236.158 195.246ZM351.898 215.003V63.9198H377.186V96.7513C379.707 90.3593 383.096 84.4525 387.36 79.0281C391.624 73.4119 396.952 68.9549 403.347 65.6631C409.741 62.1765 417.203 60.4333 425.728 60.4333C428.634 60.4333 431.541 60.6279 434.448 61.0143C437.354 61.209 439.776 61.5954 441.714 62.1765L433.867 89.1971C430.184 87.6485 425.824 86.8728 420.787 86.8728C413.616 86.8728 406.739 88.9066 400.149 92.9742C393.755 97.0418 388.427 103.338 384.163 111.86C380.093 120.381 378.059 131.23 378.059 144.401V215.003H351.898ZM516.457 218.489C504.054 218.489 492.718 215.293 482.449 208.901C472.179 202.509 464.041 193.503 458.033 181.881C452.024 170.064 449.022 156.217 449.022 140.333C449.022 125.03 452.024 111.374 458.033 99.3662C464.232 87.358 472.371 77.8659 482.449 70.8928C492.718 63.9198 503.958 60.4333 516.166 60.4333C526.243 60.4333 534.864 62.467 542.035 66.5347C549.398 70.6023 555.115 74.7658 559.185 79.0281V0H585.345V178.394C585.345 185.754 587.089 190.597 590.577 192.921C594.259 195.051 598.23 196.117 602.494 196.117L596.971 216.456C578.563 216.456 567.323 209.096 563.254 194.374C558.99 200.38 552.985 205.9 545.233 210.935C537.675 215.97 528.083 218.489 516.457 218.489ZM522.27 195.246C529.441 195.246 536.222 193.598 542.617 190.307C549.206 186.82 554.729 182.366 559.185 176.942V101.981C555.502 97.3324 550.369 93.0701 543.779 89.1971C537.19 85.1295 529.923 83.0957 521.979 83.0957C512.678 83.0957 504.539 85.6147 497.563 90.6499C490.587 95.685 485.16 102.466 481.286 110.988C477.603 119.318 475.763 128.807 475.763 139.461C475.763 150.116 477.798 159.704 481.867 168.225C485.937 176.555 491.459 183.139 498.435 187.982C505.606 192.826 513.55 195.246 522.27 195.246ZM683.381 218.489C674.469 218.489 666.426 216.842 659.255 213.55C652.087 210.064 646.37 204.543 642.106 196.989C638.037 189.435 636.002 179.652 636.002 167.644V0H662.162V165.029C662.162 175.489 664.295 183.238 668.557 188.273C673.015 193.308 679.119 195.827 686.869 195.827C690.551 195.827 694.135 195.441 697.623 194.665C701.306 193.697 704.407 192.631 706.925 191.469L713.319 212.679C709.831 214.227 705.471 215.584 700.239 216.746C695.202 217.908 689.583 218.489 683.381 218.489ZM730.082 282.409C724.269 282.409 719.133 281.828 714.677 280.666C710.413 279.504 707.02 278.147 704.503 276.598L710.317 254.807C712.642 256.164 715.549 257.326 719.037 258.294C722.525 259.262 726.399 259.747 730.663 259.747C738.802 259.747 746.069 257.132 752.463 251.902C758.858 246.672 764.962 236.407 770.775 221.104L777.461 203.672H763.509L704.503 70.8928L727.757 60.4333L784.146 186.239L828.037 61.5954L852.162 70.8928L796.645 222.557C791.023 238.052 784.919 250.159 778.333 258.875C771.743 267.591 764.477 273.693 756.533 277.179C748.586 280.666 739.77 282.409 730.082 282.409Z" fill="url(#paint0_linear_534_301)"/>
</g>
<defs>
<filter id="filter0_i_534_301" x="0" y="0" width="852.162" height="286.41" filterUnits="userSpaceOnUse" color-interpolation-filters="sRGB">
<feFlood flood-opacity="0" result="BackgroundImageFix"/>
<feBlend mode="normal" in="SourceGraphic" in2="BackgroundImageFix" result="shape"/>
<feColorMatrix in="SourceAlpha" type="matrix" values="0 0 0 0 0 0 0 0 0 0 0 0 0 0 0 0 0 0 127 0" result="hardAlpha"/>
<feOffset dy="4"/>
<feGaussianBlur stdDeviation="2"/>
<feComposite in2="hardAlpha" operator="arithmetic" k2="-1" k3="1"/>
<feColorMatrix type="matrix" values="0 0 0 0 0 0 0 0 0 0 0 0 0 0 0 0 0 0 0.25 0"/>
<feBlend mode="normal" in2="shape" result="effect1_innerShadow_534_301"/>
</filter>
<linearGradient id="paint0_linear_534_301" x1="290.28" y1="215.003" x2="525.718" y2="270.954" gradientUnits="userSpaceOnUse">
<stop stop-color="#FB6789"/>
<stop offset="0.333333" stop-color="#F3499E"/>
<stop offset="0.666667" stop-color="#CC70BF"/>
<stop offset="1" stop-color="#9DA1E8"/>
</linearGradient>
</defs>
</svg>
