<svg width="250" height="226" viewBox="0 0 250 226" fill="none" xmlns="http://www.w3.org/2000/svg">
<g filter="url(#filter0_f_178_2)">
<rect width="106.928" height="156.158" rx="10" transform="matrix(0.816642 0.577145 -0.707107 0.707107 136.42 27.001)" fill="url(#paint0_linear_178_2)"/>
</g>
<rect width="106.928" height="156.158" rx="10" transform="matrix(0.816642 0.577145 -0.707107 0.707107 136.42 27)" fill="url(#paint1_linear_178_2)"/>
<path d="M59.6875 103.732L147.01 165.446L120.393 192.062C116.488 195.967 109.666 196.549 105.156 193.362L34.1664 143.191C29.6562 140.004 29.1658 134.254 33.071 130.349L59.6875 103.732Z" fill="#F1F6F8" fill-opacity="0.5"/>
<path d="M121.743 68.9524C121.715 69.2944 122.021 69.5847 122.426 69.5729C123.645 69.5373 124.854 69.314 125.994 68.9121C127.362 68.4296 128.596 67.7017 129.609 66.78C130.622 65.8584 131.389 64.7654 131.856 63.5787C132.245 62.5901 132.417 61.5566 132.367 60.5295C132.35 60.1881 131.983 59.9533 131.581 60.0023V60.0023C131.178 60.0514 130.893 60.3659 130.905 60.7075C130.934 61.5541 130.786 62.4044 130.465 63.219C130.067 64.2317 129.413 65.1644 128.548 65.9509C127.683 66.7375 126.63 67.3587 125.463 67.7703C124.523 68.1015 123.529 68.2906 122.526 68.3306C122.121 68.3467 121.77 68.6104 121.743 68.9524V68.9524Z" fill="black"/>
<path d="M120.276 66.1754C120.255 66.444 120.495 66.6721 120.813 66.6628C121.77 66.6349 122.72 66.4594 123.616 66.1436C124.691 65.7646 125.661 65.1927 126.456 64.4686C127.252 63.7444 127.855 62.8857 128.222 61.9534C128.527 61.1766 128.663 60.3646 128.623 59.5576C128.61 59.2895 128.322 59.105 128.006 59.1436V59.1436C127.69 59.1821 127.465 59.4291 127.475 59.6975C127.497 60.3627 127.381 61.0308 127.129 61.6708C126.816 62.4665 126.302 63.1993 125.623 63.8173C124.944 64.4353 124.116 64.9233 123.199 65.2468C122.461 65.507 121.68 65.6555 120.891 65.6869C120.573 65.6996 120.298 65.9067 120.276 66.1754V66.1754Z" fill="black"/>
<path d="M120.02 63.1666C119.999 63.4378 120.241 63.6694 120.562 63.6469C121.066 63.6116 121.564 63.5092 122.036 63.3426C122.69 63.112 123.28 62.7641 123.764 62.3236C124.248 61.8831 124.615 61.3608 124.838 60.7937C124.999 60.3838 125.082 59.9577 125.086 59.5316C125.088 59.2602 124.796 59.0736 124.477 59.1125V59.1125C124.157 59.1514 123.933 59.4016 123.919 59.673C123.903 59.9554 123.842 60.2365 123.735 60.5083C123.566 60.9374 123.289 61.3326 122.922 61.6659C122.556 61.9992 122.11 62.2624 121.615 62.4369C121.302 62.5474 120.974 62.6205 120.641 62.6549C120.321 62.688 120.042 62.8953 120.02 63.1666V63.1666Z" fill="black"/>
<path d="M133.679 48.7018L138.629 43.752L139.405 44.3003L135.056 48.649L137.677 50.5016L137.076 51.1027L133.679 48.7018ZM139.806 53.177C139.382 52.8768 139.069 52.5434 138.869 52.1767C138.674 51.8053 138.575 51.4214 138.572 51.025C138.579 50.6277 138.675 50.2292 138.861 49.8296C139.052 49.4338 139.325 49.0591 139.678 48.7056C140.164 48.22 140.704 47.8614 141.298 47.6296C141.902 47.397 142.517 47.3122 143.141 47.3754C143.77 47.4338 144.365 47.6612 144.926 48.0575C145.345 48.3538 145.655 48.6853 145.855 49.052C146.06 49.4225 146.162 49.8084 146.161 50.2095C146.159 50.6107 146.065 51.0068 145.878 51.3978C145.697 51.7927 145.43 52.167 145.076 52.5205C144.723 52.8741 144.328 53.1622 143.892 53.3848C143.461 53.6113 143.01 53.7596 142.54 53.8299C142.075 53.8954 141.608 53.8792 141.14 53.7812C140.676 53.6785 140.231 53.4771 139.806 53.177ZM140.386 52.5971C140.806 52.8934 141.244 53.0544 141.701 53.08C142.159 53.1057 142.607 53.02 143.045 52.8231C143.494 52.6253 143.907 52.3378 144.284 51.9607C144.539 51.7061 144.74 51.4302 144.889 51.133C145.038 50.8357 145.122 50.5374 145.143 50.2381C145.168 49.9342 145.115 49.6433 144.984 49.3656C144.858 49.0917 144.646 48.849 144.346 48.6373C143.949 48.3565 143.518 48.2013 143.056 48.1718C142.598 48.1461 142.145 48.2279 141.695 48.4172C141.251 48.6103 140.843 48.893 140.471 49.2654C140.216 49.52 140.009 49.7963 139.851 50.0945C139.702 50.3917 139.615 50.6923 139.59 50.9963C139.565 51.3003 139.615 51.5893 139.74 51.8631C139.872 52.1408 140.087 52.3855 140.386 52.5971ZM145.603 57.2732C145.162 56.9615 144.869 56.5855 144.724 56.1451C144.579 55.7047 144.59 55.2338 144.757 54.7323C144.928 54.2261 145.262 53.7255 145.757 53.2305C146.285 52.7026 146.852 52.3113 147.46 52.0568C148.072 51.7976 148.685 51.6915 149.298 51.7384C149.921 51.7844 150.507 52.0018 151.057 52.3904C151.411 52.6405 151.689 52.9014 151.891 53.173C152.093 53.4447 152.258 53.726 152.385 54.017L151.541 54.3736C151.42 54.1036 151.276 53.8486 151.107 53.6086C150.944 53.3724 150.718 53.1524 150.429 52.9484C150.086 52.706 149.701 52.5707 149.274 52.5424C148.852 52.5095 148.408 52.5904 147.944 52.7852C147.485 52.9839 147.034 53.3048 146.591 53.7479C146.195 54.1439 145.927 54.5333 145.785 54.9162C145.649 55.2944 145.63 55.6474 145.73 55.9752C145.829 56.3031 146.042 56.5824 146.369 56.8133C146.674 57.0287 146.998 57.165 147.34 57.222C147.693 57.2782 147.996 57.2954 148.25 57.2738L149.332 56.1919L148.148 55.355L148.678 54.8247L150.597 56.181L147.974 58.8044L147.288 58.3196L147.783 57.8246C147.446 57.8361 147.081 57.8069 146.686 57.7371C146.296 57.6625 145.935 57.5079 145.603 57.2732ZM151.522 61.4565C151.097 61.1564 150.785 60.823 150.585 60.4563C150.389 60.0849 150.29 59.701 150.287 59.3045C150.294 58.9072 150.39 58.5088 150.576 58.1091C150.768 57.7134 151.04 57.3387 151.394 56.9851C151.879 56.4996 152.419 56.1409 153.013 55.9092C153.618 55.6765 154.232 55.5918 154.856 55.6549C155.486 55.7134 156.08 55.9408 156.641 56.3371C157.06 56.6333 157.37 56.9648 157.57 57.3315C157.776 57.7021 157.878 58.0879 157.876 58.4891C157.875 58.8902 157.78 59.2863 157.594 59.6774C157.413 60.0723 157.145 60.4465 156.792 60.8001C156.438 61.1536 156.043 61.4417 155.607 61.6643C155.176 61.8908 154.726 62.0392 154.256 62.1094C153.791 62.175 153.324 62.1588 152.855 62.0608C152.391 61.958 151.946 61.7566 151.522 61.4565ZM152.102 60.8767C152.521 61.173 152.959 61.3339 153.417 61.3596C153.874 61.3852 154.322 61.2996 154.761 61.1026C155.209 60.9048 155.622 60.6174 156 60.2402C156.254 59.9857 156.456 59.7098 156.604 59.4125C156.753 59.1152 156.837 58.817 156.858 58.5177C156.883 58.2137 156.83 57.9228 156.699 57.6451C156.573 57.3713 156.361 57.1285 156.061 56.9169C155.664 56.636 155.234 56.4808 154.771 56.4513C154.313 56.4257 153.86 56.5075 153.41 56.6967C152.966 56.8898 152.558 57.1726 152.186 57.545C151.931 57.7995 151.725 58.0759 151.566 58.374C151.417 58.6713 151.33 58.9719 151.305 59.2759C151.28 59.5799 151.33 59.8688 151.456 60.1427C151.587 60.4204 151.802 60.6651 152.102 60.8767Z" fill="black"/>
<path d="M55.3623 126.373L56.867 124.868L57.5139 121.512L58.3081 121.609L57.698 124.606L61.0555 123.59L61.2966 124.185L57.4877 125.307L55.983 126.811L55.3623 126.373ZM59.0784 129.115C58.7561 128.887 58.5306 128.618 58.4019 128.309C58.2769 127.995 58.2554 127.671 58.3373 127.336C58.4274 127.001 58.6233 126.682 58.925 126.38C59.2418 126.064 59.5893 125.843 59.9674 125.717C60.3455 125.592 60.7253 125.558 61.1067 125.615C61.4881 125.672 61.8378 125.813 62.1558 126.038C62.4737 126.262 62.6968 126.526 62.8249 126.829C62.9575 127.135 62.9827 127.456 62.9008 127.79C62.8269 128.124 62.6335 128.448 62.3205 128.761C62.0075 129.074 61.66 129.295 61.2781 129.424C60.9 129.549 60.5183 129.585 60.1331 129.532C59.7523 129.482 59.4007 129.343 59.0784 129.115ZM59.531 128.662C59.8751 128.906 60.2429 128.995 60.6344 128.93C61.0297 128.862 61.3876 128.668 61.7081 128.347C61.9042 128.151 62.0355 127.938 62.1018 127.708C62.1719 127.475 62.1733 127.25 62.1058 127.035C62.0465 126.82 61.9123 126.638 61.7032 126.49C61.3591 126.247 60.9932 126.156 60.6055 126.216C60.2177 126.277 59.8617 126.47 59.5374 126.794C59.3413 126.99 59.2063 127.207 59.1324 127.444C59.0623 127.678 59.0569 127.903 59.1162 128.118C59.1837 128.333 59.3219 128.515 59.531 128.662ZM62.6629 131.648C62.4669 131.51 62.3176 131.343 62.2151 131.148C62.1125 130.953 62.086 130.738 62.1355 130.503C62.1887 130.264 62.3493 130.01 62.617 129.743L64.529 127.831L65.117 128.246L63.2729 130.09C63.0428 130.32 62.9222 130.538 62.911 130.742C62.9036 130.943 63.0087 131.12 63.2265 131.274C63.4051 131.4 63.6073 131.492 63.8331 131.548C64.0671 131.604 64.3022 131.626 64.5385 131.612L66.7503 129.401L67.3383 129.816L65.1604 131.994C64.9982 132.156 64.9299 132.291 64.9555 132.4C64.9893 132.507 65.054 132.595 65.1499 132.662L64.6298 132.971C64.2247 132.684 64.1138 132.368 64.2971 132.021C64.0089 132.049 63.7212 132.036 63.4341 131.981C63.1508 131.922 62.8937 131.811 62.6629 131.648ZM65.563 133.582L68.5045 130.64L69.0729 131.042L68.4337 131.681C68.6148 131.597 68.806 131.536 69.0074 131.498C69.2126 131.456 69.4191 131.454 69.627 131.492C69.8386 131.525 70.0402 131.61 70.2318 131.745C70.2972 131.791 70.3587 131.841 70.4165 131.895C70.4781 131.945 70.525 131.991 70.5572 132.033L69.8547 132.435C69.8022 132.346 69.7192 132.262 69.606 132.181C69.4449 132.068 69.2506 131.998 69.0234 131.972C68.8004 131.95 68.5581 131.988 68.2963 132.086C68.0389 132.188 67.782 132.366 67.5256 132.623L66.151 133.997L65.563 133.582ZM71.4351 137.848C71.1128 137.62 70.8939 137.356 70.7782 137.055C70.6706 136.754 70.6665 136.442 70.7659 136.12C70.8691 135.794 71.0715 135.48 71.3732 135.178C71.656 134.895 71.9797 134.683 72.3442 134.541C72.713 134.403 73.0894 134.354 73.4735 134.393C73.8613 134.429 74.2228 134.566 74.5582 134.803C74.7498 134.938 74.9024 135.072 75.016 135.204C75.1339 135.338 75.2321 135.482 75.3106 135.634L74.7042 135.939C74.6351 135.8 74.5552 135.679 74.4646 135.577C74.3821 135.473 74.2733 135.374 74.1383 135.278C73.8334 135.063 73.4803 134.978 73.0789 135.022C72.6857 135.066 72.3212 135.256 71.9856 135.591C71.7819 135.795 71.6407 136.011 71.5618 136.238C71.483 136.466 71.4708 136.682 71.5252 136.888C71.5839 137.097 71.7178 137.275 71.9269 137.423C72.0924 137.54 72.249 137.625 72.3968 137.678C72.5483 137.727 72.7218 137.769 72.9171 137.804L72.6702 138.363C72.471 138.332 72.2677 138.275 72.0601 138.193C71.8569 138.114 71.6486 137.999 71.4351 137.848ZM74.5117 140.022C74.1894 139.794 73.9639 139.525 73.8351 139.216C73.7101 138.902 73.6886 138.578 73.7706 138.243C73.8607 137.908 74.0566 137.589 74.3583 137.288C74.6751 136.971 75.0225 136.75 75.4006 136.624C75.7788 136.499 76.1586 136.465 76.54 136.522C76.9214 136.579 77.2711 136.72 77.589 136.945C77.907 137.169 78.13 137.433 78.2582 137.736C78.3907 138.042 78.416 138.363 78.334 138.697C78.2602 139.031 78.0668 139.355 77.7538 139.668C77.4407 139.981 77.0933 140.202 76.7114 140.331C76.3333 140.457 75.9516 140.493 75.5664 140.439C75.1856 140.389 74.834 140.25 74.5117 140.022ZM74.9642 139.57C75.3083 139.813 75.6761 139.902 76.0676 139.838C76.4629 139.769 76.8208 139.575 77.1414 139.254C77.3375 139.058 77.4687 138.845 77.5351 138.615C77.6052 138.382 77.6065 138.158 77.5391 137.942C77.4797 137.727 77.3455 137.545 77.1365 137.397C76.7924 137.154 76.4265 137.063 76.0387 137.124C75.651 137.184 75.295 137.377 74.9706 137.701C74.7745 137.897 74.6395 138.114 74.5657 138.351C74.4955 138.585 74.4901 138.81 74.5495 139.025C74.6169 139.24 74.7552 139.422 74.9642 139.57ZM77.0534 141.703L79.9949 138.761L80.5633 139.163L80.0712 139.655C80.3515 139.583 80.6381 139.56 80.931 139.587C81.2277 139.61 81.4958 139.706 81.7353 139.875C82.0053 140.066 82.1687 140.278 82.2255 140.511C82.2865 140.747 82.2576 140.984 82.1388 141.222C82.4473 141.144 82.7533 141.109 83.0569 141.118C83.3649 141.13 83.6561 141.232 83.9304 141.426C84.3007 141.688 84.4732 141.984 84.4482 142.314C84.4312 142.643 84.2606 142.97 83.9362 143.294L82.0186 145.212L81.4306 144.796L83.3087 142.918C83.5123 142.714 83.6219 142.512 83.6375 142.31C83.6568 142.105 83.5707 141.935 83.379 141.799C83.183 141.661 82.936 141.596 82.6379 141.604C82.348 141.611 82.055 141.655 81.759 141.736L79.83 143.665L79.242 143.249L81.1201 141.371C81.3237 141.168 81.4333 140.965 81.4489 140.764C81.4682 140.558 81.3821 140.388 81.1904 140.253C80.9988 140.117 80.7558 140.052 80.4615 140.056C80.171 140.057 79.8796 140.095 79.5873 140.172L77.6414 142.118L77.0534 141.703ZM84.2637 146.914C83.9806 146.714 83.7858 146.47 83.6794 146.183C83.573 145.895 83.5633 145.589 83.6502 145.264C83.7452 144.939 83.9474 144.621 84.2566 144.312C84.5508 144.018 84.8823 143.802 85.2511 143.663C85.6243 143.528 85.9985 143.477 86.3738 143.51C86.7573 143.543 87.1058 143.671 87.4194 143.892C87.6154 144.031 87.7616 144.186 87.8581 144.357C87.9626 144.527 88.0304 144.697 88.0612 144.867L88.2988 144.63L88.8345 145.008L86.6057 147.237C86.4624 147.38 86.4073 147.502 86.4405 147.603C86.4818 147.703 86.5503 147.787 86.6461 147.854L86.126 148.163C85.7079 147.867 85.6024 147.542 85.8094 147.186C85.5885 147.236 85.3401 147.25 85.0641 147.229C84.7961 147.207 84.5293 147.102 84.2637 146.914ZM84.8469 146.554C85.0124 146.671 85.2031 146.748 85.4191 146.784C85.6388 146.817 85.8516 146.817 86.0573 146.782L87.6356 145.204C87.5897 145.049 87.5156 144.9 87.4133 144.757C87.3192 144.613 87.1938 144.486 87.037 144.375C86.8279 144.227 86.5957 144.144 86.3402 144.124C86.0929 144.104 85.8406 144.144 85.5832 144.245C85.3295 144.343 85.0934 144.501 84.8746 144.72C84.6634 144.931 84.5206 145.152 84.4461 145.382C84.3754 145.609 84.3735 145.827 84.4404 146.035C84.511 146.239 84.6465 146.412 84.8469 146.554ZM85.8475 150.042L89.2813 146.608C89.4095 146.48 89.463 146.363 89.4417 146.258C89.4286 146.152 89.3654 146.059 89.2522 145.979L89.7723 145.671C90.173 145.954 90.2858 146.269 90.1107 146.615C90.2108 146.589 90.3465 146.572 90.5177 146.565C90.6933 146.56 90.8812 146.58 91.0815 146.625C91.2862 146.673 91.4822 146.763 91.6695 146.896C91.9308 147.08 92.1143 147.313 92.2201 147.594C92.3341 147.874 92.3476 148.176 92.2607 148.501C92.1776 148.822 91.9757 149.143 91.6552 149.464C91.3421 149.777 90.9972 150.003 90.6202 150.142C90.247 150.277 89.8812 150.331 89.5227 150.303C89.1724 150.274 88.8665 150.167 88.6052 149.982C88.4048 149.841 88.2515 149.674 88.1452 149.483C88.0426 149.289 87.98 149.106 87.9572 148.935L86.4355 150.457L85.8475 150.042ZM88.9401 149.447C89.2363 149.656 89.5758 149.725 89.9586 149.655C90.3495 149.583 90.709 149.384 91.0371 149.056C91.2634 148.829 91.4097 148.601 91.4761 148.371C91.5468 148.145 91.5471 147.932 91.477 147.735C91.4113 147.54 91.2848 147.377 91.0976 147.245C90.9103 147.112 90.6989 147.034 90.4635 147.009C90.2362 146.984 90.0363 146.99 89.8636 147.029L88.4154 148.477C88.4268 148.659 88.4727 148.836 88.5529 149.009C88.6368 149.178 88.7659 149.324 88.9401 149.447ZM90.9746 151.541L93.9161 148.599L94.4845 149.001L93.9924 149.493C94.2727 149.421 94.5593 149.398 94.8522 149.425C95.1532 149.451 95.4344 149.557 95.6957 149.741C96.079 150.012 96.2643 150.314 96.2517 150.646C96.2435 150.981 96.0753 151.313 95.7472 151.641L93.8295 153.559L93.2416 153.143L95.1027 151.282C95.3139 151.071 95.4248 150.86 95.4354 150.648C95.4504 150.44 95.3555 150.264 95.1508 150.119C94.9505 149.977 94.6988 149.906 94.3958 149.904C94.0965 149.898 93.8008 149.934 93.5085 150.011L91.5626 151.957L90.9746 151.541ZM93.6134 155.646C93.4827 155.554 93.3786 155.461 93.3011 155.367C93.2279 155.277 93.1781 155.197 93.1516 155.126L93.7065 154.794C93.7324 154.858 93.7751 154.927 93.8347 155.001C93.8942 155.075 93.9719 155.146 94.0677 155.214C94.2506 155.343 94.4649 155.408 94.7104 155.407C94.956 155.407 95.293 155.304 95.7216 155.099L96.2113 154.865L95.8977 154.644L97.1567 151.121L97.883 151.287L96.701 154.632L100.114 152.903L100.476 153.467L96.2748 155.538C95.8468 155.75 95.4739 155.889 95.1561 155.954C94.8383 156.019 94.5562 156.023 94.3097 155.964C94.0633 155.906 93.8312 155.8 93.6134 155.646ZM100.219 158.074L103.161 155.133L103.729 155.535L103.237 156.027C103.517 155.955 103.804 155.932 104.097 155.959C104.398 155.985 104.679 156.09 104.94 156.275C105.324 156.546 105.509 156.847 105.496 157.179C105.488 157.515 105.32 157.846 104.992 158.175L103.074 160.092L102.486 159.677L104.347 157.816C104.558 157.604 104.669 157.393 104.68 157.182C104.695 156.974 104.6 156.797 104.395 156.652C104.195 156.511 103.943 156.439 103.64 156.437C103.341 156.432 103.045 156.467 102.753 156.544L100.807 158.49L100.219 158.074ZM105.318 161.794C105.035 161.594 104.84 161.35 104.733 161.062C104.627 160.775 104.617 160.468 104.704 160.144C104.799 159.818 105.001 159.501 105.311 159.191C105.605 158.897 105.936 158.681 106.305 158.543C106.678 158.407 107.053 158.356 107.428 158.39C107.811 158.423 108.16 158.55 108.473 158.772C108.669 158.91 108.816 159.065 108.912 159.236C109.017 159.407 109.084 159.577 109.115 159.747L109.353 159.509L109.889 159.888L107.66 162.116C107.516 162.26 107.461 162.382 107.495 162.482C107.536 162.582 107.604 162.666 107.7 162.734L107.18 163.042C106.762 162.747 106.656 162.421 106.863 162.065C106.643 162.115 106.394 162.13 106.118 162.108C105.85 162.086 105.583 161.981 105.318 161.794ZM105.901 161.433C106.066 161.55 106.257 161.627 106.473 161.664C106.693 161.697 106.906 161.696 107.111 161.661L108.69 160.083C108.644 159.928 108.57 159.779 108.467 159.636C108.373 159.493 108.248 159.365 108.091 159.254C107.882 159.107 107.65 159.023 107.394 159.003C107.147 158.983 106.895 159.024 106.637 159.125C106.384 159.222 106.147 159.381 105.929 159.599C105.717 159.81 105.575 160.031 105.5 160.262C105.429 160.489 105.428 160.706 105.494 160.914C105.565 161.119 105.701 161.292 105.901 161.433ZM108.118 163.657L111.059 160.715L111.628 161.117L111.135 161.609C111.416 161.537 111.702 161.514 111.995 161.541C112.292 161.564 112.56 161.66 112.8 161.829C113.07 162.02 113.233 162.232 113.29 162.465C113.351 162.701 113.322 162.938 113.203 163.176C113.512 163.098 113.818 163.063 114.121 163.072C114.429 163.084 114.72 163.187 114.995 163.38C115.365 163.642 115.538 163.938 115.512 164.268C115.495 164.597 115.325 164.924 115.001 165.248L113.083 167.166L112.495 166.75L114.373 164.872C114.577 164.668 114.686 164.466 114.702 164.264C114.721 164.059 114.635 163.889 114.443 163.753C114.247 163.615 114 163.55 113.702 163.558C113.412 163.565 113.119 163.609 112.823 163.69L110.894 165.619L110.306 165.203L112.184 163.325C112.388 163.122 112.498 162.919 112.513 162.718C112.532 162.512 112.446 162.342 112.255 162.207C112.063 162.071 111.82 162.006 111.526 162.01C111.235 162.011 110.944 162.049 110.652 162.126L108.706 164.072L108.118 163.657ZM115.387 168.91C114.899 168.565 114.645 168.157 114.625 167.686C114.614 167.215 114.851 166.736 115.338 166.249C115.632 165.955 115.957 165.737 116.314 165.597C116.678 165.455 117.042 165.4 117.405 165.431C117.771 165.459 118.107 165.58 118.412 165.795C118.738 166.026 118.946 166.279 119.035 166.555C119.132 166.829 119.132 167.109 119.033 167.393C118.935 167.677 118.761 167.944 118.512 168.193C118.38 168.325 118.245 168.449 118.108 168.564L115.73 166.883C115.493 167.186 115.39 167.48 115.418 167.764C115.446 168.047 115.611 168.296 115.911 168.508C116.107 168.646 116.301 168.754 116.491 168.831C116.686 168.904 116.883 168.963 117.083 169.008L116.785 169.541C116.568 169.49 116.343 169.415 116.109 169.314C115.871 169.217 115.631 169.082 115.387 168.91ZM116.136 166.466L117.998 167.781C118.285 167.495 118.422 167.216 118.412 166.944C118.401 166.673 118.249 166.434 117.958 166.227C117.705 166.049 117.419 165.978 117.098 166.016C116.782 166.05 116.461 166.2 116.136 166.466Z" fill="black"/>
<defs>
<filter id="filter0_f_178_2" x="0.434814" y="0.71582" width="248.873" height="224.704" filterUnits="userSpaceOnUse" color-interpolation-filters="sRGB">
<feFlood flood-opacity="0" result="BackgroundImageFix"/>
<feBlend mode="normal" in="SourceGraphic" in2="BackgroundImageFix" result="shape"/>
<feGaussianBlur stdDeviation="15" result="effect1_foregroundBlur_178_2"/>
</filter>
<linearGradient id="paint0_linear_178_2" x1="0" y1="0" x2="106.928" y2="156.158" gradientUnits="userSpaceOnUse">
<stop stop-color="#FC6B85"/>
<stop offset="0.1875" stop-color="#FC7B8E"/>
<stop offset="0.4375" stop-color="#F13DA3"/>
<stop offset="0.796975" stop-color="#94ABEF"/>
<stop offset="1" stop-color="#CFE8F5"/>
</linearGradient>
<linearGradient id="paint1_linear_178_2" x1="0" y1="0" x2="106.928" y2="156.158" gradientUnits="userSpaceOnUse">
<stop stop-color="#FC6B85"/>
<stop offset="0.1875" stop-color="#FC7B8E"/>
<stop offset="0.4375" stop-color="#F13DA3"/>
<stop offset="0.796975" stop-color="#94ABEF"/>
<stop offset="1" stop-color="#CFE8F5"/>
</linearGradient>
</defs>
</svg>
