<svg width="237" height="226" viewBox="0 0 237 226" fill="none" xmlns="http://www.w3.org/2000/svg">
<g filter="url(#filter0_f_13_1637)">
<rect width="106.928" height="156.158" rx="10" transform="matrix(0.816642 0.577145 -0.707107 0.707107 136.68 27.2344)" fill="url(#paint0_linear_13_1637)"/>
</g>
<rect width="106.928" height="156.158" rx="10" transform="matrix(0.816642 0.577145 -0.707107 0.707107 136.68 23)" fill="url(#paint1_linear_13_1637)"/>
<path d="M59.9475 99.7324L147.27 161.446L120.653 188.062C116.748 191.967 109.926 192.549 105.416 189.362L34.4264 139.191C29.9162 136.004 29.4258 130.254 33.331 126.349L59.9475 99.7324Z" fill="#F1F6F8" fill-opacity="0.5"/>
<path d="M122.003 64.9524C121.975 65.2944 122.281 65.5847 122.686 65.5729C123.905 65.5373 125.114 65.314 126.254 64.9121C127.622 64.4296 128.856 63.7017 129.869 62.78C130.882 61.8584 131.649 60.7654 132.116 59.5787C132.505 58.5901 132.677 57.5566 132.627 56.5295C132.61 56.1881 132.243 55.9533 131.841 56.0023C131.438 56.0514 131.153 56.3659 131.165 56.7075C131.194 57.5541 131.046 58.4044 130.725 59.219C130.327 60.2317 129.673 61.1644 128.808 61.9509C127.943 62.7375 126.89 63.3587 125.723 63.7703C124.783 64.1015 123.789 64.2906 122.786 64.3306C122.381 64.3467 122.03 64.6104 122.003 64.9524Z" fill="black"/>
<path d="M120.536 62.1754C120.515 62.444 120.755 62.6721 121.073 62.6628C122.03 62.6349 122.98 62.4594 123.876 62.1436C124.951 61.7646 125.921 61.1927 126.716 60.4686C127.512 59.7444 128.115 58.8857 128.482 57.9534C128.787 57.1766 128.923 56.3646 128.883 55.5576C128.87 55.2895 128.582 55.105 128.266 55.1436C127.95 55.1821 127.725 55.4291 127.735 55.6975C127.757 56.3627 127.641 57.0308 127.389 57.6708C127.076 58.4665 126.562 59.1993 125.883 59.8173C125.204 60.4353 124.376 60.9233 123.459 61.2468C122.721 61.507 121.94 61.6555 121.151 61.6869C120.833 61.6996 120.558 61.9067 120.536 62.1754Z" fill="black"/>
<path d="M120.28 59.1666C120.259 59.4378 120.501 59.6694 120.822 59.6469C121.326 59.6116 121.824 59.5092 122.296 59.3426C122.95 59.112 123.54 58.7641 124.024 58.3236C124.508 57.8831 124.875 57.3608 125.098 56.7937C125.259 56.3838 125.342 55.9577 125.346 55.5316C125.348 55.2602 125.056 55.0736 124.737 55.1125C124.417 55.1514 124.193 55.4016 124.179 55.673C124.163 55.9554 124.102 56.2365 123.995 56.5083C123.826 56.9374 123.549 57.3326 123.182 57.6659C122.816 57.9992 122.37 58.2624 121.875 58.4369C121.562 58.5474 121.234 58.6205 120.901 58.6549C120.581 58.688 120.302 58.8953 120.28 59.1666Z" fill="black"/>
<path d="M133.939 44.7018L138.889 39.752L139.665 40.3003L135.316 44.649L137.937 46.5016L137.336 47.1027L133.939 44.7018ZM140.066 49.177C139.642 48.8768 139.329 48.5434 139.129 48.1767C138.934 47.8053 138.835 47.4214 138.832 47.025C138.839 46.6277 138.935 46.2292 139.121 45.8296C139.312 45.4338 139.585 45.0591 139.938 44.7056C140.424 44.22 140.964 43.8614 141.558 43.6296C142.162 43.397 142.777 43.3122 143.401 43.3754C144.03 43.4338 144.625 43.6612 145.186 44.0575C145.605 44.3538 145.915 44.6853 146.115 45.052C146.32 45.4225 146.422 45.8084 146.421 46.2095C146.419 46.6107 146.325 47.0068 146.138 47.3978C145.957 47.7927 145.69 48.167 145.336 48.5205C144.983 48.8741 144.588 49.1622 144.152 49.3848C143.721 49.6113 143.27 49.7596 142.8 49.8299C142.335 49.8954 141.868 49.8792 141.4 49.7812C140.936 49.6785 140.491 49.4771 140.066 49.177ZM140.646 48.5971C141.066 48.8934 141.504 49.0544 141.961 49.08C142.419 49.1057 142.867 49.02 143.306 48.8231C143.754 48.6253 144.167 48.3378 144.544 47.9607C144.799 47.7061 145 47.4302 145.149 47.133C145.298 46.8357 145.382 46.5374 145.403 46.2381C145.428 45.9342 145.375 45.6433 145.244 45.3656C145.118 45.0917 144.906 44.849 144.606 44.6373C144.209 44.3565 143.778 44.2013 143.316 44.1718C142.858 44.1461 142.405 44.2279 141.955 44.4172C141.511 44.6103 141.103 44.893 140.731 45.2654C140.476 45.52 140.269 45.7963 140.111 46.0945C139.962 46.3917 139.875 46.6923 139.85 46.9963C139.825 47.3003 139.875 47.5893 140 47.8631C140.132 48.1408 140.347 48.3855 140.646 48.5971ZM145.863 53.2732C145.422 52.9615 145.129 52.5855 144.984 52.1451C144.839 51.7047 144.85 51.2338 145.017 50.7323C145.188 50.2261 145.522 49.7255 146.017 49.2305C146.545 48.7026 147.112 48.3113 147.72 48.0568C148.332 47.7976 148.945 47.6915 149.558 47.7384C150.181 47.7844 150.767 48.0018 151.317 48.3904C151.671 48.6405 151.949 48.9014 152.151 49.173C152.353 49.4447 152.518 49.726 152.645 50.017L151.801 50.3736C151.68 50.1036 151.536 49.8486 151.367 49.6086C151.204 49.3724 150.978 49.1524 150.689 48.9484C150.346 48.706 149.961 48.5707 149.534 48.5424C149.112 48.5095 148.668 48.5904 148.204 48.7852C147.745 48.9839 147.294 49.3048 146.851 49.7479C146.455 50.1439 146.187 50.5333 146.045 50.9162C145.909 51.2944 145.89 51.6474 145.99 51.9752C146.089 52.3031 146.302 52.5824 146.629 52.8133C146.934 53.0287 147.258 53.165 147.6 53.222C147.953 53.2782 148.256 53.2954 148.51 53.2738L149.592 52.1919L148.408 51.355L148.938 50.8247L150.857 52.181L148.234 54.8044L147.548 54.3196L148.043 53.8246C147.706 53.8361 147.341 53.8069 146.946 53.7371C146.556 53.6625 146.195 53.5079 145.863 53.2732ZM151.782 57.4565C151.357 57.1564 151.045 56.823 150.845 56.4563C150.649 56.0849 150.55 55.701 150.547 55.3045C150.554 54.9072 150.65 54.5088 150.836 54.1091C151.028 53.7134 151.3 53.3387 151.654 52.9851C152.139 52.4996 152.679 52.1409 153.273 51.9092C153.878 51.6765 154.492 51.5918 155.116 51.6549C155.746 51.7134 156.34 51.9408 156.901 52.3371C157.32 52.6333 157.63 52.9648 157.83 53.3315C158.036 53.7021 158.138 54.0879 158.136 54.4891C158.135 54.8902 158.04 55.2863 157.854 55.6774C157.673 56.0723 157.405 56.4465 157.052 56.8001C156.698 57.1536 156.303 57.4417 155.867 57.6643C155.436 57.8908 154.986 58.0392 154.516 58.1094C154.051 58.175 153.584 58.1588 153.115 58.0608C152.651 57.958 152.206 57.7566 151.782 57.4565ZM152.362 56.8767C152.781 57.173 153.219 57.3339 153.677 57.3596C154.134 57.3852 154.582 57.2996 155.021 57.1026C155.469 56.9048 155.882 56.6174 156.26 56.2402C156.514 55.9857 156.716 55.7098 156.864 55.4125C157.013 55.1152 157.097 54.817 157.118 54.5177C157.143 54.2137 157.09 53.9228 156.959 53.6451C156.833 53.3713 156.621 53.1285 156.321 52.9169C155.924 52.636 155.494 52.4808 155.031 52.4513C154.573 52.4257 154.12 52.5075 153.67 52.6967C153.226 52.8898 152.818 53.1726 152.446 53.545C152.191 53.7995 151.985 54.0759 151.826 54.374C151.677 54.6713 151.59 54.9719 151.565 55.2759C151.54 55.5799 151.59 55.8688 151.716 56.1427C151.847 56.4204 152.062 56.6651 152.362 56.8767Z" fill="black"/>
<path d="M55.6223 122.373L57.127 120.868L57.774 117.512L58.5681 117.609L57.958 120.606L61.3156 119.59L61.5566 120.185L57.7477 121.307L56.243 122.811L55.6223 122.373ZM59.3385 125.115C59.0162 124.887 58.7906 124.618 58.6619 124.309C58.5369 123.995 58.5154 123.671 58.5974 123.336C58.6874 123.001 58.8833 122.682 59.185 122.38C59.5018 122.064 59.8493 121.843 60.2274 121.717C60.6055 121.592 60.9853 121.558 61.3667 121.615C61.7482 121.672 62.0978 121.813 62.4158 122.038C62.7337 122.262 62.9568 122.526 63.0849 122.829C63.2175 123.135 63.2427 123.456 63.1608 123.79C63.0869 124.124 62.8935 124.448 62.5805 124.761C62.2675 125.074 61.92 125.295 61.5381 125.424C61.16 125.549 60.7784 125.585 60.3932 125.532C60.0123 125.482 59.6608 125.343 59.3385 125.115ZM59.791 124.662C60.1351 124.906 60.5029 124.995 60.8944 124.93C61.2897 124.862 61.6476 124.668 61.9682 124.347C62.1643 124.151 62.2955 123.938 62.3618 123.708C62.4319 123.475 62.4333 123.25 62.3658 123.035C62.3065 122.82 62.1723 122.638 61.9632 122.49C61.6192 122.247 61.2532 122.156 60.8655 122.216C60.4778 122.277 60.1217 122.47 59.7974 122.794C59.6013 122.99 59.4663 123.207 59.3924 123.444C59.3223 123.678 59.3169 123.903 59.3762 124.118C59.4437 124.333 59.5819 124.515 59.791 124.662ZM62.9229 127.648C62.7269 127.51 62.5776 127.343 62.4751 127.148C62.3725 126.953 62.346 126.738 62.3955 126.503C62.4488 126.264 62.6093 126.01 62.877 125.743L64.789 123.831L65.377 124.246L63.5329 126.09C63.3028 126.32 63.1822 126.538 63.171 126.742C63.1636 126.943 63.2687 127.12 63.4865 127.274C63.6651 127.4 63.8673 127.492 64.0931 127.548C64.3271 127.604 64.5622 127.626 64.7985 127.612L67.0103 125.401L67.5983 125.816L65.4204 127.994C65.2582 128.156 65.19 128.291 65.2156 128.4C65.2493 128.507 65.3141 128.595 65.4099 128.662L64.8898 128.971C64.4847 128.684 64.3738 128.368 64.5571 128.021C64.2689 128.049 63.9812 128.036 63.6941 127.981C63.4108 127.922 63.1537 127.811 62.9229 127.648ZM65.823 129.582L68.7646 126.64L69.3329 127.042L68.6937 127.681C68.8748 127.597 69.066 127.536 69.2674 127.498C69.4726 127.456 69.6791 127.454 69.887 127.492C70.0986 127.525 70.3002 127.61 70.4919 127.745C70.5572 127.791 70.6187 127.841 70.6765 127.895C70.7381 127.945 70.785 127.991 70.8172 128.033L70.1148 128.435C70.0622 128.346 69.9793 128.262 69.866 128.181C69.7049 128.068 69.5107 127.998 69.2834 127.972C69.0604 127.95 68.8181 127.988 68.5564 128.086C68.299 128.188 68.042 128.366 67.7856 128.623L66.411 129.997L65.823 129.582ZM71.6952 133.848C71.3729 133.62 71.1539 133.356 71.0382 133.055C70.9306 132.754 70.9265 132.442 71.0259 132.12C71.1291 131.794 71.3315 131.48 71.6332 131.178C71.916 130.895 72.2397 130.683 72.6042 130.541C72.973 130.403 73.3495 130.354 73.7335 130.393C74.1213 130.429 74.4829 130.566 74.8182 130.803C75.0099 130.938 75.1625 131.072 75.276 131.204C75.3939 131.338 75.4921 131.482 75.5706 131.634L74.9642 131.939C74.8951 131.8 74.8152 131.679 74.7246 131.577C74.6421 131.473 74.5334 131.374 74.3983 131.278C74.0935 131.063 73.7403 130.978 73.3389 131.022C72.9457 131.066 72.5812 131.256 72.2456 131.591C72.0419 131.795 71.9007 132.011 71.8219 132.238C71.743 132.466 71.7308 132.682 71.7852 132.888C71.8439 133.097 71.9778 133.275 72.1869 133.423C72.3524 133.54 72.509 133.625 72.6568 133.678C72.8084 133.727 72.9818 133.769 73.1772 133.804L72.9302 134.363C72.731 134.332 72.5277 134.275 72.3201 134.193C72.1169 134.114 71.9086 133.999 71.6952 133.848ZM74.7717 136.022C74.4494 135.794 74.2239 135.525 74.0951 135.216C73.9702 134.902 73.9486 134.578 74.0306 134.243C74.1207 133.908 74.3166 133.589 74.6183 133.288C74.9351 132.971 75.2825 132.75 75.6607 132.624C76.0388 132.499 76.4186 132.465 76.8 132.522C77.1814 132.579 77.5311 132.72 77.849 132.945C78.167 133.169 78.39 133.433 78.5182 133.736C78.6507 134.042 78.676 134.363 78.594 134.697C78.5202 135.031 78.3268 135.355 78.0138 135.668C77.7007 135.981 77.3533 136.202 76.9714 136.331C76.5933 136.457 76.2116 136.493 75.8264 136.439C75.4456 136.389 75.094 136.25 74.7717 136.022ZM75.2242 135.57C75.5683 135.813 75.9361 135.902 76.3276 135.838C76.7229 135.769 77.0808 135.575 77.4014 135.254C77.5975 135.058 77.7287 134.845 77.7951 134.615C77.8652 134.382 77.8665 134.158 77.7991 133.942C77.7397 133.727 77.6055 133.545 77.3965 133.397C77.0524 133.154 76.6865 133.063 76.2988 133.124C75.911 133.184 75.555 133.377 75.2306 133.701C75.0345 133.897 74.8995 134.114 74.8257 134.351C74.7555 134.585 74.7502 134.81 74.8095 135.025C74.8769 135.24 75.0152 135.422 75.2242 135.57ZM77.3134 137.703L80.255 134.761L80.8233 135.163L80.3312 135.655C80.6115 135.583 80.8981 135.56 81.191 135.587C81.4877 135.61 81.7558 135.706 81.9953 135.875C82.2654 136.066 82.4287 136.278 82.4855 136.511C82.5465 136.747 82.5176 136.984 82.3988 137.222C82.7073 137.144 83.0133 137.109 83.3169 137.118C83.6249 137.13 83.9161 137.232 84.1905 137.426C84.5607 137.688 84.7332 137.984 84.7082 138.314C84.6912 138.643 84.5206 138.97 84.1962 139.294L82.2786 141.212L81.6906 140.796L83.5687 138.918C83.7723 138.714 83.8819 138.512 83.8975 138.31C83.9168 138.105 83.8307 137.935 83.639 137.799C83.443 137.661 83.196 137.596 82.8979 137.604C82.608 137.611 82.315 137.655 82.019 137.736L80.09 139.665L79.502 139.249L81.3801 137.371C81.5837 137.168 81.6933 136.965 81.7089 136.764C81.7282 136.558 81.6421 136.388 81.4504 136.253C81.2588 136.117 81.0158 136.052 80.7215 136.056C80.431 136.057 80.1396 136.095 79.8473 136.172L77.9014 138.118L77.3134 137.703ZM82.1711 143.26L85.6048 139.826C85.733 139.698 85.7865 139.581 85.7653 139.476C85.7521 139.37 85.689 139.277 85.5757 139.197L86.0958 138.889C86.4965 139.172 86.6093 139.487 86.4342 139.833C86.5343 139.807 86.67 139.79 86.8412 139.783C87.0168 139.778 87.2048 139.798 87.4051 139.843C87.6097 139.891 87.8057 139.981 87.993 140.114C88.2543 140.298 88.4379 140.531 88.5437 140.812C88.6576 141.092 88.6711 141.394 88.5842 141.719C88.5011 142.04 88.2993 142.361 87.9787 142.681C87.6657 142.995 87.3207 143.221 86.9437 143.36C86.5705 143.495 86.2047 143.549 85.8462 143.521C85.4959 143.492 85.1901 143.385 84.9287 143.2C84.7284 143.059 84.575 142.892 84.4687 142.701C84.3661 142.507 84.3035 142.324 84.2808 142.153L82.7591 143.675L82.1711 143.26ZM85.2637 142.665C85.5599 142.874 85.8993 142.943 86.2821 142.873C86.6731 142.801 87.0326 142.602 87.3607 142.274C87.587 142.047 87.7333 141.819 87.7996 141.589C87.8703 141.363 87.8706 141.15 87.8006 140.953C87.7349 140.758 87.6084 140.595 87.4211 140.463C87.2338 140.33 87.0225 140.252 86.7871 140.227C86.5598 140.202 86.3598 140.208 86.1871 140.247L84.739 141.695C84.7504 141.877 84.7962 142.054 84.8764 142.227C84.9604 142.396 85.0895 142.542 85.2637 142.665ZM88.5303 145.746C88.2472 145.546 88.0525 145.302 87.9461 145.014C87.8397 144.727 87.83 144.42 87.9169 144.096C88.0119 143.77 88.214 143.453 88.5233 143.144C88.8174 142.849 89.1489 142.633 89.5178 142.495C89.8909 142.359 90.2652 142.309 90.6405 142.342C91.0239 142.375 91.3725 142.502 91.6861 142.724C91.882 142.862 92.0283 143.017 92.1247 143.188C92.2293 143.359 92.297 143.529 92.3279 143.699L92.5655 143.461L93.1012 143.84L90.8724 146.069C90.7291 146.212 90.674 146.334 90.7071 146.435C90.7484 146.534 90.817 146.618 90.9128 146.686L90.3927 146.994C89.9745 146.699 89.869 146.373 90.0761 146.017C89.8552 146.067 89.6068 146.082 89.3307 146.06C89.0628 146.038 88.796 145.933 88.5303 145.746ZM89.1135 145.385C89.279 145.502 89.4698 145.579 89.6857 145.616C89.9055 145.649 90.1182 145.648 90.324 145.613L91.9023 144.035C91.8563 143.88 91.7822 143.731 91.68 143.588C91.5859 143.445 91.4604 143.317 91.3036 143.207C91.0946 143.059 90.8623 142.975 90.6069 142.956C90.3596 142.935 90.1072 142.976 89.8498 143.077C89.5962 143.175 89.36 143.333 89.1413 143.551C88.9301 143.763 88.7873 143.983 88.7128 144.214C88.6421 144.441 88.6402 144.658 88.707 144.867C88.7777 145.071 88.9132 145.244 89.1135 145.385ZM91.3303 147.609L94.2718 144.667L94.8402 145.069L94.3481 145.561C94.6284 145.489 94.915 145.466 95.2079 145.493C95.5089 145.519 95.7901 145.624 96.0514 145.809C96.4347 146.08 96.62 146.381 96.6074 146.714C96.5992 147.049 96.431 147.381 96.1029 147.709L94.1853 149.626L93.5973 149.211L95.4584 147.35C95.6696 147.139 95.7805 146.927 95.7911 146.716C95.8061 146.508 95.7112 146.331 95.5065 146.187C95.3062 146.045 95.0545 145.973 94.7515 145.972C94.4522 145.966 94.1565 146.002 93.8642 146.078L91.9183 148.024L91.3303 147.609ZM93.9691 151.713C93.8384 151.621 93.7343 151.528 93.6568 151.435C93.5836 151.344 93.5338 151.264 93.5073 151.194L94.0623 150.862C94.0881 150.925 94.1308 150.994 94.1904 151.069C94.2499 151.143 94.3276 151.214 94.4234 151.281C94.6063 151.411 94.8206 151.475 95.0661 151.475C95.3117 151.475 95.6488 151.372 96.0773 151.166L96.567 150.933L96.2534 150.711L97.5124 147.189L98.2387 147.355L97.0567 150.7L100.47 148.97L100.831 149.535L96.6305 151.606C96.2025 151.818 95.8296 151.957 95.5118 152.022C95.194 152.087 94.9119 152.09 94.6654 152.032C94.419 151.974 94.1869 151.867 93.9691 151.713ZM100.575 154.142L103.516 151.201L104.085 151.602L103.593 152.094C103.873 152.022 104.16 151.999 104.453 152.026C104.754 152.052 105.035 152.158 105.296 152.342C105.679 152.613 105.865 152.915 105.852 153.247C105.844 153.582 105.676 153.914 105.348 154.242L103.43 156.16L102.842 155.744L104.703 153.883C104.914 153.672 105.025 153.461 105.036 153.249C105.051 153.041 104.956 152.865 104.751 152.72C104.551 152.578 104.299 152.507 103.996 152.505C103.697 152.499 103.401 152.535 103.109 152.612L101.163 154.558L100.575 154.142ZM105.673 157.861C105.39 157.661 105.196 157.417 105.089 157.13C104.983 156.842 104.973 156.536 105.06 156.211C105.155 155.886 105.357 155.568 105.666 155.259C105.961 154.965 106.292 154.749 106.661 154.61C107.034 154.475 107.408 154.424 107.784 154.458C108.167 154.49 108.516 154.618 108.829 154.839C109.025 154.978 109.171 155.133 109.268 155.304C109.372 155.474 109.44 155.644 109.471 155.814L109.709 155.577L110.244 155.955L108.015 158.184C107.872 158.327 107.817 158.449 107.85 158.55C107.892 158.65 107.96 158.734 108.056 158.802L107.536 159.11C107.118 158.814 107.012 158.489 107.219 158.133C106.998 158.183 106.75 158.197 106.474 158.176C106.206 158.154 105.939 158.049 105.673 157.861ZM106.257 157.501C106.422 157.618 106.613 157.695 106.829 157.732C107.049 157.765 107.261 157.764 107.467 157.729L109.045 156.151C108.999 155.996 108.925 155.847 108.823 155.704C108.729 155.56 108.604 155.433 108.447 155.322C108.238 155.174 108.005 155.091 107.75 155.071C107.503 155.051 107.25 155.091 106.993 155.193C106.739 155.29 106.503 155.448 106.284 155.667C106.073 155.878 105.93 156.099 105.856 156.33C105.785 156.556 105.783 156.774 105.85 156.982C105.921 157.186 106.056 157.359 106.257 157.501ZM108.473 159.724L111.415 156.783L111.983 157.184L111.491 157.676C111.772 157.604 112.058 157.582 112.351 157.608C112.648 157.631 112.916 157.727 113.155 157.897C113.425 158.088 113.589 158.3 113.645 158.533C113.707 158.769 113.678 159.006 113.559 159.244C113.867 159.166 114.173 159.131 114.477 159.14C114.785 159.151 115.076 159.254 115.35 159.448C115.721 159.71 115.893 160.005 115.868 160.335C115.851 160.665 115.681 160.991 115.356 161.316L113.439 163.233L112.851 162.818L114.729 160.94C114.932 160.736 115.042 160.533 115.057 160.332C115.077 160.127 114.991 159.957 114.799 159.821C114.603 159.683 114.356 159.617 114.058 159.626C113.768 159.633 113.475 159.677 113.179 159.758L111.25 161.686L110.662 161.271L112.54 159.393C112.744 159.189 112.853 158.987 112.869 158.785C112.888 158.58 112.802 158.41 112.61 158.274C112.419 158.139 112.176 158.073 111.881 158.078C111.591 158.078 111.3 158.117 111.007 158.194L109.061 160.14L108.473 159.724ZM115.742 164.977C115.255 164.633 115.001 164.225 114.981 163.754C114.97 163.282 115.207 162.803 115.694 162.317C115.988 162.023 116.313 161.805 116.669 161.664C117.034 161.523 117.397 161.468 117.76 161.499C118.127 161.526 118.463 161.648 118.768 161.863C119.094 162.094 119.302 162.347 119.391 162.622C119.488 162.897 119.487 163.176 119.389 163.461C119.29 163.745 119.117 164.012 118.868 164.261C118.736 164.393 118.601 164.516 118.463 164.631L116.085 162.951C115.849 163.254 115.745 163.547 115.774 163.831C115.802 164.115 115.966 164.363 116.267 164.576C116.463 164.714 116.656 164.822 116.847 164.899C117.041 164.972 117.239 165.031 117.439 165.076L117.141 165.608C116.924 165.558 116.698 165.482 116.465 165.381C116.227 165.284 115.986 165.15 115.742 164.977ZM116.492 162.533L118.354 163.849C118.64 163.562 118.778 163.283 118.767 163.012C118.756 162.74 118.605 162.501 118.313 162.295C118.061 162.117 117.774 162.046 117.454 162.084C117.138 162.118 116.817 162.267 116.492 162.533Z" fill="black"/>
<defs>
<filter id="filter0_f_13_1637" x="0.694824" y="0.949219" width="248.873" height="224.704" filterUnits="userSpaceOnUse" color-interpolation-filters="sRGB">
<feFlood flood-opacity="0" result="BackgroundImageFix"/>
<feBlend mode="normal" in="SourceGraphic" in2="BackgroundImageFix" result="shape"/>
<feGaussianBlur stdDeviation="15" result="effect1_foregroundBlur_13_1637"/>
</filter>
<linearGradient id="paint0_linear_13_1637" x1="0" y1="0" x2="106.928" y2="156.158" gradientUnits="userSpaceOnUse">
<stop stop-color="#FC6B85"/>
<stop offset="0.1875" stop-color="#FC7B8E"/>
<stop offset="0.4375" stop-color="#F13DA3"/>
<stop offset="0.796975" stop-color="#94ABEF"/>
<stop offset="1" stop-color="#CFE8F5"/>
</linearGradient>
<linearGradient id="paint1_linear_13_1637" x1="0" y1="0" x2="106.928" y2="156.158" gradientUnits="userSpaceOnUse">
<stop stop-color="#FC6B85"/>
<stop offset="0.1875" stop-color="#FC7B8E"/>
<stop offset="0.4375" stop-color="#F13DA3"/>
<stop offset="0.796975" stop-color="#94ABEF"/>
<stop offset="1" stop-color="#CFE8F5"/>
</linearGradient>
</defs>
</svg>
