<svg width="412" height="367" viewBox="0 0 412 367" fill="none" xmlns="http://www.w3.org/2000/svg">
<g filter="url(#filter0_f_291_292)">
<rect width="194.474" height="284.009" rx="10" transform="matrix(0.816642 0.577145 -0.707107 0.707107 227.337 26.7021)" fill="url(#paint0_linear_291_292)"/>
</g>
<rect width="194.474" height="284.009" rx="10" transform="matrix(0.816642 0.577145 -0.707107 0.707107 227.337 19)" fill="url(#paint1_linear_291_292)"/>
<path d="M87.781 158.557L246.597 270.796L192.399 324.994C188.494 328.899 181.672 329.481 177.162 326.294L34.6788 225.597C30.1687 222.409 29.6782 216.659 33.5835 212.754L87.781 158.557Z" fill="#F1F6F8" fill-opacity="0.5"/>
<path d="M198.824 93.4801C198.774 94.1021 199.33 94.6302 200.067 94.6087C202.283 94.544 204.482 94.1378 206.555 93.4068C209.043 92.5294 211.288 91.2056 213.131 89.5293C214.973 87.8529 216.368 85.8652 217.217 83.7069C217.924 81.9088 218.238 80.0291 218.146 78.1611C218.115 77.5403 217.448 77.1132 216.717 77.2024V77.2024C215.985 77.2917 215.466 77.8636 215.487 78.485C215.54 80.0247 215.271 81.5712 214.688 83.0527C213.964 84.8945 212.773 86.5908 211.201 88.0214C209.628 89.4519 207.712 90.5816 205.589 91.3304C203.881 91.9327 202.073 92.2766 200.248 92.3493C199.511 92.3786 198.874 92.8582 198.824 93.4801V93.4801Z" fill="black"/>
<path d="M196.157 88.4294C196.118 88.918 196.554 89.3328 197.133 89.316C198.874 89.2652 200.602 88.946 202.231 88.3717C204.186 87.6823 205.95 86.6423 207.397 85.3252C208.845 84.0082 209.941 82.4465 210.608 80.7508C211.163 79.3381 211.41 77.8612 211.337 76.3936C211.313 75.9058 210.79 75.5703 210.215 75.6404V75.6404C209.64 75.7106 209.232 76.1598 209.249 76.6479C209.29 77.8577 209.079 79.0728 208.621 80.2369C208.052 81.684 207.117 83.0167 205.881 84.1407C204.646 85.2646 203.141 86.1522 201.472 86.7405C200.13 87.2138 198.709 87.484 197.275 87.5411C196.697 87.5641 196.196 87.9409 196.157 88.4294V88.4294Z" fill="black"/>
<path d="M195.691 82.9588C195.652 83.4522 196.093 83.8733 196.677 83.8324C197.593 83.7682 198.498 83.582 199.357 83.2789C200.547 82.8596 201.619 82.2269 202.5 81.4258C203.381 80.6246 204.047 79.6746 204.453 78.6432C204.746 77.8977 204.898 77.1228 204.904 76.3478C204.908 75.8541 204.376 75.5147 203.796 75.5855V75.5855C203.215 75.6563 202.808 76.1113 202.781 76.605C202.753 77.1186 202.641 77.6299 202.447 78.1242C202.14 78.9046 201.635 79.6234 200.969 80.2296C200.303 80.8357 199.491 81.3144 198.591 81.6317C198.021 81.8327 197.425 81.9657 196.82 82.0283C196.238 82.0884 195.731 82.4654 195.691 82.9588V82.9588Z" fill="black"/>
<path d="M220.625 60.4241L230.524 50.5246L232.076 51.6212L223.378 60.3186L228.621 64.0239L227.419 65.2259L220.625 60.4241ZM232.879 69.3745C232.03 68.7743 231.405 68.1075 231.005 67.3741C230.614 66.6312 230.416 65.8634 230.41 65.0705C230.424 64.2759 230.617 63.479 230.989 62.6797C231.371 61.8882 231.916 61.1389 232.623 60.4318C233.594 59.4607 234.674 58.7433 235.862 58.2798C237.071 57.8145 238.3 57.645 239.549 57.7713C240.807 57.8882 241.997 58.343 243.118 59.1356C243.957 59.7281 244.576 60.3911 244.976 61.1245C245.387 61.8656 245.591 62.6373 245.588 63.4396C245.585 64.2419 245.397 65.0341 245.024 65.8162C244.661 66.6061 244.126 67.3545 243.419 68.0616C242.712 68.7687 241.922 69.3449 241.05 69.7902C240.188 70.2431 239.287 70.5399 238.347 70.6804C237.417 70.8115 236.483 70.779 235.546 70.583C234.618 70.3776 233.729 69.9747 232.879 69.3745ZM234.039 68.2149C234.878 68.8074 235.754 69.1293 236.669 69.1806C237.584 69.2319 238.48 69.0607 239.358 68.6668C240.255 68.2711 241.081 67.6962 241.835 66.942C242.344 66.4328 242.747 65.881 243.044 65.2865C243.342 64.692 243.511 64.0954 243.552 63.4969C243.602 62.8889 243.496 62.3072 243.234 61.7517C242.983 61.204 242.558 60.7185 241.959 60.2953C241.164 59.7335 240.303 59.4231 239.378 59.3641C238.463 59.3128 237.556 59.4764 236.657 59.8549C235.769 60.2411 234.952 60.8066 234.208 61.5514C233.698 62.0605 233.285 62.6132 232.968 63.2095C232.67 63.804 232.497 64.4053 232.446 65.0133C232.396 65.6212 232.496 66.1991 232.747 66.7468C233.01 67.3023 233.44 67.7916 234.039 68.2149ZM244.472 77.567C243.59 76.9437 243.004 76.1916 242.714 75.3109C242.424 74.4301 242.446 73.4882 242.78 72.4852C243.123 71.4728 243.79 70.4716 244.78 69.4816C245.836 68.4257 246.971 67.6432 248.186 67.1343C249.411 66.6159 250.636 66.4036 251.862 66.4974C253.108 66.5895 254.28 67.0241 255.38 67.8014C256.088 68.3015 256.644 68.8233 257.048 69.3666C257.453 69.9099 257.782 70.4726 258.037 71.0545L256.348 71.7678C256.107 71.2277 255.818 70.7177 255.481 70.2377C255.154 69.7654 254.702 69.3253 254.125 68.9174C253.439 68.4326 252.669 68.162 251.815 68.1055C250.97 68.0395 250.083 68.2014 249.155 68.591C248.237 68.9884 247.335 69.6302 246.449 70.5164C245.657 71.3084 245.12 72.0873 244.837 72.853C244.564 73.6094 244.527 74.3154 244.726 74.971C244.925 75.6267 245.351 76.1854 246.005 76.6471C246.614 77.0781 247.262 77.3506 247.947 77.4646C248.652 77.5769 249.259 77.6114 249.767 77.5681L251.931 75.4044L249.562 73.7307L250.623 72.67L254.461 75.3826L249.214 80.6293L247.843 79.6597L248.832 78.6698C248.159 78.6927 247.428 78.6343 246.638 78.4947C245.858 78.3456 245.136 78.0364 244.472 77.567ZM256.31 85.9336C255.461 85.3334 254.836 84.6666 254.436 83.9332C254.045 83.1904 253.847 82.4225 253.84 81.6296C253.854 80.835 254.047 80.0381 254.419 79.2389C254.802 78.4473 255.347 77.698 256.054 76.9909C257.025 76.0198 258.105 75.3024 259.293 74.8389C260.502 74.3736 261.73 74.2041 262.979 74.3304C264.238 74.4473 265.427 74.9021 266.549 75.6947C267.387 76.2872 268.007 76.9502 268.407 77.6836C268.818 78.4247 269.022 79.1964 269.019 79.9987C269.016 80.801 268.827 81.5932 268.454 82.3753C268.092 83.1652 267.557 83.9136 266.85 84.6207C266.143 85.3278 265.353 85.904 264.48 86.3493C263.618 86.8022 262.718 87.099 261.778 87.2395C260.848 87.3706 259.914 87.3381 258.976 87.1421C258.048 86.9367 257.159 86.5339 256.31 85.9336ZM257.47 84.774C258.308 85.3665 259.185 85.6884 260.1 85.7397C261.015 85.7911 261.911 85.6198 262.788 85.2259C263.686 84.8302 264.511 84.2553 265.266 83.5011C265.775 82.9919 266.178 82.4401 266.475 81.8456C266.772 81.2511 266.941 80.6545 266.982 80.056C267.033 79.448 266.927 78.8663 266.665 78.3108C266.413 77.7631 265.988 77.2776 265.389 76.8544C264.594 76.2926 263.734 75.9822 262.808 75.9232C261.893 75.8719 260.986 76.0355 260.087 76.414C259.199 76.8002 258.383 77.3657 257.638 78.1105C257.129 78.6196 256.716 79.1723 256.398 79.7686C256.101 80.3631 255.927 80.9644 255.877 81.5724C255.826 82.1803 255.927 82.7582 256.178 83.3059C256.44 83.8614 256.871 84.3507 257.47 84.774Z" fill="black"/>
<path d="M81.6133 196.429L83.4942 194.548L84.3028 190.352L85.2955 190.474L84.5329 194.22L88.7298 192.95L89.0312 193.694L84.27 195.096L82.3891 196.977L81.6133 196.429ZM86.2584 199.856C85.8556 199.572 85.5737 199.236 85.4127 198.848C85.2565 198.456 85.2296 198.051 85.3321 197.633C85.4447 197.213 85.6895 196.815 86.0667 196.438C86.4626 196.042 86.897 195.766 87.3696 195.609C87.8423 195.452 88.317 195.41 88.7938 195.481C89.2706 195.553 89.7077 195.729 90.1051 196.01C90.5025 196.291 90.7813 196.62 90.9416 196.999C91.1072 197.382 91.1388 197.782 91.0363 198.2C90.9441 198.618 90.7023 199.022 90.311 199.414C89.9197 199.805 89.4854 200.081 89.008 200.243C88.5354 200.399 88.0583 200.444 87.5768 200.378C87.1008 200.315 86.6613 200.141 86.2584 199.856ZM86.8241 199.291C87.2542 199.595 87.714 199.706 88.2034 199.626C88.6975 199.541 89.1449 199.298 89.5456 198.897C89.7907 198.652 89.9547 198.385 90.0376 198.098C90.1253 197.806 90.127 197.526 90.0426 197.257C89.9685 196.987 89.8007 196.76 89.5394 196.575C89.1093 196.271 88.6519 196.157 88.1672 196.233C87.6826 196.309 87.2375 196.55 86.8321 196.955C86.587 197.2 86.4182 197.471 86.3259 197.768C86.2382 198.06 86.2315 198.341 86.3057 198.61C86.39 198.879 86.5628 199.106 86.8241 199.291ZM90.739 203.023C90.494 202.85 90.3074 202.641 90.1792 202.398C90.051 202.154 90.0178 201.886 90.0797 201.591C90.1463 201.293 90.347 200.976 90.6817 200.641L93.0717 198.251L93.8067 198.77L91.5015 201.076C91.2139 201.363 91.0631 201.635 91.0491 201.89C91.0398 202.141 91.1713 202.363 91.4435 202.555C91.6667 202.713 91.9195 202.827 92.2018 202.898C92.4943 202.968 92.7881 202.995 93.0835 202.978L95.8483 200.213L96.5832 200.733L93.8609 203.455C93.6582 203.658 93.5728 203.827 93.6048 203.962C93.647 204.096 93.7279 204.206 93.8477 204.291L93.1976 204.676C92.6913 204.318 92.5526 203.922 92.7817 203.489C92.4214 203.524 92.0619 203.507 91.703 203.439C91.3489 203.365 91.0275 203.227 90.739 203.023ZM94.3641 205.44L98.0411 201.763L98.7515 202.265L97.9525 203.064C98.1789 202.959 98.4179 202.882 98.6697 202.835C98.9262 202.783 99.1843 202.78 99.4441 202.827C99.7086 202.869 99.9606 202.975 100.2 203.144C100.282 203.202 100.359 203.264 100.431 203.331C100.508 203.394 100.567 203.451 100.607 203.504L99.7288 204.006C99.6631 203.895 99.5594 203.79 99.4179 203.69C99.2165 203.547 98.9737 203.46 98.6896 203.428C98.4109 203.4 98.108 203.448 97.7808 203.57C97.4591 203.697 97.1379 203.921 96.8174 204.241L95.0991 205.959L94.3641 205.44ZM101.704 210.772C101.301 210.488 101.028 210.157 100.883 209.782C100.749 209.405 100.744 209.015 100.868 208.612C100.997 208.205 101.25 207.812 101.627 207.435C101.98 207.082 102.385 206.816 102.841 206.639C103.302 206.466 103.772 206.405 104.252 206.454C104.737 206.499 105.189 206.67 105.608 206.966C105.848 207.135 106.038 207.302 106.18 207.467C106.328 207.636 106.451 207.815 106.549 208.005L105.791 208.386C105.704 208.213 105.604 208.062 105.491 207.933C105.388 207.804 105.252 207.68 105.083 207.561C104.702 207.291 104.261 207.185 103.759 207.24C103.267 207.295 102.812 207.532 102.392 207.952C102.138 208.206 101.961 208.476 101.863 208.76C101.764 209.045 101.749 209.315 101.817 209.573C101.89 209.834 102.058 210.057 102.319 210.241C102.526 210.388 102.722 210.494 102.906 210.56C103.096 210.621 103.313 210.674 103.557 210.718L103.248 211.417C102.999 211.378 102.745 211.307 102.486 211.204C102.231 211.105 101.971 210.961 101.704 210.772ZM105.55 213.49C105.147 213.206 104.865 212.87 104.704 212.482C104.548 212.09 104.521 211.685 104.624 211.267C104.736 210.847 104.981 210.449 105.358 210.072C105.754 209.676 106.189 209.4 106.661 209.243C107.134 209.086 107.609 209.044 108.085 209.115C108.562 209.187 108.999 209.363 109.397 209.644C109.794 209.924 110.073 210.254 110.233 210.633C110.399 211.016 110.43 211.416 110.328 211.834C110.236 212.252 109.994 212.656 109.603 213.048C109.211 213.439 108.777 213.715 108.3 213.877C107.827 214.033 107.35 214.078 106.868 214.012C106.392 213.949 105.953 213.775 105.55 213.49ZM106.116 212.925C106.546 213.229 107.006 213.34 107.495 213.26C107.989 213.174 108.436 212.931 108.837 212.531C109.082 212.286 109.246 212.019 109.329 211.732C109.417 211.44 109.419 211.16 109.334 210.891C109.26 210.621 109.092 210.394 108.831 210.209C108.401 209.905 107.943 209.791 107.459 209.867C106.974 209.943 106.529 210.184 106.124 210.589C105.879 210.834 105.71 211.105 105.617 211.402C105.53 211.694 105.523 211.975 105.597 212.244C105.682 212.513 105.854 212.74 106.116 212.925ZM108.727 215.591L112.404 211.914L113.115 212.416L112.499 213.031C112.85 212.941 113.208 212.912 113.574 212.946C113.945 212.975 114.28 213.095 114.58 213.306C114.917 213.545 115.121 213.81 115.192 214.102C115.269 214.397 115.232 214.693 115.084 214.99C115.469 214.893 115.852 214.849 116.232 214.86C116.616 214.875 116.98 215.003 117.323 215.246C117.786 215.573 118.002 215.942 117.971 216.355C117.949 216.766 117.736 217.175 117.331 217.58L114.934 219.977L114.199 219.458L116.546 217.11C116.801 216.856 116.938 216.602 116.957 216.351C116.981 216.094 116.874 215.881 116.634 215.712C116.389 215.539 116.08 215.457 115.708 215.468C115.345 215.477 114.979 215.532 114.609 215.632L112.198 218.044L111.463 217.524L113.81 215.177C114.065 214.922 114.202 214.669 114.221 214.417C114.246 214.161 114.138 213.948 113.898 213.779C113.659 213.609 113.355 213.527 112.987 213.533C112.624 213.534 112.26 213.582 111.895 213.678L109.462 216.11L108.727 215.591ZM117.74 222.105C117.386 221.855 117.143 221.55 117.01 221.191C116.877 220.831 116.865 220.449 116.973 220.043C117.092 219.636 117.345 219.239 117.731 218.853C118.099 218.485 118.513 218.215 118.974 218.042C119.441 217.872 119.909 217.809 120.378 217.851C120.857 217.892 121.293 218.051 121.685 218.328C121.93 218.501 122.112 218.695 122.233 218.908C122.364 219.122 122.448 219.334 122.487 219.547L122.784 219.25L123.454 219.723L120.668 222.509C120.488 222.688 120.42 222.84 120.461 222.966C120.513 223.091 120.598 223.196 120.718 223.281L120.068 223.666C119.545 223.297 119.413 222.89 119.672 222.445C119.396 222.507 119.086 222.525 118.74 222.499C118.406 222.471 118.072 222.34 117.74 222.105ZM118.469 221.655C118.676 221.801 118.914 221.897 119.184 221.943C119.459 221.985 119.725 221.983 119.982 221.94L121.955 219.967C121.897 219.774 121.805 219.587 121.677 219.409C121.559 219.229 121.403 219.07 121.207 218.931C120.945 218.747 120.655 218.642 120.336 218.618C120.027 218.592 119.711 218.643 119.389 218.769C119.072 218.891 118.777 219.089 118.504 219.362C118.24 219.626 118.061 219.902 117.968 220.191C117.88 220.474 117.877 220.746 117.961 221.006C118.049 221.262 118.219 221.478 118.469 221.655ZM119.72 226.015L124.012 221.723C124.172 221.562 124.239 221.416 124.213 221.285C124.196 221.153 124.117 221.037 123.976 220.937L124.626 220.551C125.127 220.905 125.268 221.299 125.049 221.731C125.174 221.699 125.343 221.678 125.558 221.668C125.777 221.663 126.012 221.688 126.262 221.744C126.518 221.804 126.763 221.917 126.997 222.082C127.324 222.313 127.553 222.604 127.686 222.955C127.828 223.305 127.845 223.683 127.736 224.089C127.632 224.49 127.38 224.891 126.979 225.292C126.588 225.683 126.157 225.966 125.686 226.14C125.219 226.309 124.762 226.376 124.314 226.341C123.876 226.305 123.494 226.171 123.167 225.941C122.916 225.764 122.725 225.556 122.592 225.317C122.464 225.074 122.385 224.845 122.357 224.632L120.455 226.534L119.72 226.015ZM123.586 225.271C123.956 225.533 124.38 225.619 124.859 225.531C125.347 225.442 125.797 225.192 126.207 224.782C126.49 224.499 126.673 224.214 126.755 223.927C126.844 223.644 126.844 223.378 126.757 223.131C126.675 222.888 126.516 222.684 126.282 222.519C126.048 222.353 125.784 222.255 125.49 222.224C125.206 222.192 124.956 222.2 124.74 222.249L122.93 224.059C122.944 224.287 123.001 224.508 123.101 224.724C123.206 224.935 123.368 225.117 123.586 225.271ZM126.129 227.889L129.806 224.212L130.516 224.714L129.901 225.329C130.251 225.239 130.61 225.211 130.976 225.244C131.352 225.277 131.703 225.408 132.03 225.639C132.509 225.978 132.741 226.355 132.725 226.77C132.715 227.189 132.505 227.604 132.094 228.014L129.697 230.411L128.962 229.892L131.289 227.565C131.553 227.301 131.691 227.037 131.705 226.773C131.723 226.513 131.605 226.292 131.349 226.111C131.098 225.934 130.784 225.845 130.405 225.843C130.031 225.836 129.661 225.88 129.296 225.976L126.864 228.408L126.129 227.889ZM129.427 233.02C129.264 232.905 129.134 232.788 129.037 232.672C128.945 232.559 128.883 232.458 128.85 232.371L129.544 231.956C129.576 232.035 129.629 232.121 129.704 232.214C129.778 232.307 129.875 232.395 129.995 232.48C130.224 232.642 130.491 232.722 130.798 232.722C131.105 232.722 131.527 232.593 132.062 232.336L132.675 232.044L132.283 231.767L133.856 227.364L134.764 227.572L133.287 231.753L137.553 229.591L138.005 230.296L132.754 232.885C132.219 233.151 131.753 233.324 131.356 233.405C130.958 233.487 130.606 233.491 130.298 233.418C129.989 233.345 129.699 233.212 129.427 233.02ZM137.684 236.056L141.361 232.379L142.072 232.881L141.457 233.496C141.807 233.406 142.165 233.377 142.531 233.411C142.908 233.444 143.259 233.575 143.586 233.806C144.065 234.145 144.297 234.522 144.281 234.937C144.271 235.356 144.06 235.771 143.65 236.181L141.253 238.578L140.518 238.058L142.845 235.732C143.109 235.468 143.247 235.204 143.26 234.94C143.279 234.68 143.161 234.459 142.905 234.278C142.654 234.101 142.34 234.012 141.961 234.009C141.587 234.002 141.217 234.047 140.852 234.143L138.419 236.575L137.684 236.056ZM144.058 240.705C143.704 240.455 143.46 240.15 143.327 239.79C143.194 239.431 143.182 239.048 143.291 238.642C143.409 238.235 143.662 237.839 144.049 237.452C144.416 237.084 144.831 236.814 145.292 236.641C145.758 236.472 146.226 236.408 146.695 236.45C147.175 236.491 147.61 236.65 148.002 236.927C148.247 237.1 148.43 237.294 148.551 237.508C148.681 237.721 148.766 237.934 148.804 238.146L149.101 237.849L149.771 238.322L146.985 241.108C146.806 241.287 146.737 241.44 146.779 241.566C146.83 241.691 146.916 241.795 147.036 241.88L146.385 242.265C145.863 241.896 145.731 241.489 145.99 241.044C145.714 241.107 145.403 241.125 145.058 241.098C144.723 241.07 144.39 240.939 144.058 240.705ZM144.787 240.254C144.993 240.401 145.232 240.497 145.502 240.543C145.776 240.584 146.042 240.583 146.3 240.539L148.272 238.566C148.215 238.373 148.122 238.187 147.995 238.008C147.877 237.828 147.72 237.669 147.524 237.531C147.263 237.346 146.972 237.241 146.653 237.217C146.344 237.192 146.029 237.242 145.707 237.369C145.39 237.491 145.095 237.688 144.821 237.962C144.557 238.226 144.379 238.502 144.286 238.79C144.197 239.074 144.195 239.345 144.278 239.606C144.367 239.861 144.536 240.077 144.787 240.254ZM147.557 243.033L151.234 239.356L151.945 239.859L151.33 240.474C151.68 240.383 152.038 240.355 152.405 240.389C152.775 240.417 153.11 240.537 153.41 240.749C153.747 240.988 153.952 241.253 154.023 241.544C154.099 241.839 154.063 242.136 153.914 242.433C154.3 242.335 154.682 242.292 155.062 242.303C155.447 242.317 155.811 242.446 156.154 242.688C156.617 243.015 156.832 243.385 156.801 243.797C156.78 244.209 156.566 244.617 156.161 245.023L153.764 247.42L153.029 246.9L155.377 244.553C155.631 244.298 155.768 244.045 155.788 243.793C155.812 243.537 155.704 243.324 155.465 243.155C155.22 242.981 154.911 242.9 154.538 242.91C154.176 242.92 153.809 242.974 153.439 243.075L151.028 245.486L150.293 244.967L152.641 242.619C152.895 242.365 153.032 242.111 153.052 241.86C153.076 241.603 152.968 241.39 152.729 241.221C152.489 241.052 152.185 240.97 151.818 240.975C151.454 240.976 151.09 241.025 150.725 241.12L148.292 243.553L147.557 243.033ZM156.644 249.6C156.034 249.169 155.717 248.659 155.692 248.07C155.678 247.481 155.975 246.882 156.583 246.274C156.95 245.906 157.357 245.634 157.802 245.458C158.258 245.282 158.713 245.213 159.166 245.252C159.624 245.286 160.044 245.438 160.425 245.707C160.833 245.996 161.093 246.312 161.204 246.656C161.326 246.999 161.325 247.349 161.202 247.704C161.079 248.059 160.861 248.393 160.55 248.704C160.385 248.869 160.217 249.023 160.045 249.167L157.072 247.067C156.777 247.445 156.647 247.812 156.683 248.167C156.718 248.522 156.924 248.832 157.299 249.098C157.544 249.271 157.786 249.405 158.024 249.501C158.268 249.593 158.514 249.667 158.765 249.723L158.392 250.389C158.12 250.325 157.839 250.231 157.546 250.105C157.25 249.984 156.949 249.815 156.644 249.6ZM157.58 246.545L159.908 248.19C160.266 247.831 160.438 247.482 160.425 247.143C160.411 246.803 160.222 246.505 159.857 246.247C159.541 246.024 159.184 245.936 158.783 245.983C158.388 246.025 157.987 246.212 157.58 246.545Z" fill="black"/>
<defs>
<filter id="filter0_f_291_292" x="0.94751" y="0.416992" width="410.771" height="365.635" filterUnits="userSpaceOnUse" color-interpolation-filters="sRGB">
<feFlood flood-opacity="0" result="BackgroundImageFix"/>
<feBlend mode="normal" in="SourceGraphic" in2="BackgroundImageFix" result="shape"/>
<feGaussianBlur stdDeviation="15" result="effect1_foregroundBlur_291_292"/>
</filter>
<linearGradient id="paint0_linear_291_292" x1="0" y1="0" x2="194.474" y2="284.009" gradientUnits="userSpaceOnUse">
<stop stop-color="#FC6B85"/>
<stop offset="0.1875" stop-color="#FC7B8E"/>
<stop offset="0.4375" stop-color="#F13DA3"/>
<stop offset="0.796975" stop-color="#94ABEF"/>
<stop offset="1" stop-color="#CFE8F5"/>
</linearGradient>
<linearGradient id="paint1_linear_291_292" x1="0" y1="0" x2="194.474" y2="284.009" gradientUnits="userSpaceOnUse">
<stop stop-color="#FC6B85"/>
<stop offset="0.1875" stop-color="#FC7B8E"/>
<stop offset="0.4375" stop-color="#F13DA3"/>
<stop offset="0.796975" stop-color="#94ABEF"/>
<stop offset="1" stop-color="#CFE8F5"/>
</linearGradient>
</defs>
</svg>
