<svg width="412" height="367" viewBox="0 0 412 367" fill="none" xmlns="http://www.w3.org/2000/svg">
<g filter="url(#filter0_f_514_300)">
<rect width="194.474" height="284.009" rx="10" transform="matrix(0.816642 0.577145 -0.707107 0.707107 227.337 26.7021)" fill="url(#paint0_linear_514_300)"/>
</g>
<rect width="194.474" height="284.009" rx="10" transform="matrix(0.816642 0.577145 -0.707107 0.707107 227.337 19)" fill="url(#paint1_linear_514_300)"/>
<path d="M87.781 158.557L246.597 270.796L192.399 324.994C188.494 328.899 181.672 329.481 177.162 326.294L34.6788 225.597C30.1687 222.409 29.6782 216.659 33.5835 212.754L87.781 158.557Z" fill="#F1F6F8" fill-opacity="0.5"/>
<path d="M198.824 93.4801C198.774 94.1021 199.33 94.6302 200.067 94.6087C202.283 94.544 204.482 94.1378 206.555 93.4068C209.043 92.5294 211.288 91.2056 213.131 89.5293C214.973 87.8529 216.368 85.8652 217.217 83.7069C217.924 81.9088 218.238 80.0291 218.146 78.1611C218.115 77.5403 217.448 77.1132 216.717 77.2024V77.2024C215.985 77.2917 215.466 77.8636 215.487 78.485C215.54 80.0247 215.271 81.5712 214.688 83.0527C213.964 84.8945 212.773 86.5908 211.201 88.0214C209.628 89.4519 207.712 90.5816 205.589 91.3304C203.881 91.9327 202.073 92.2766 200.248 92.3493C199.511 92.3786 198.874 92.8582 198.824 93.4801V93.4801Z" fill="black"/>
<path d="M196.157 88.4294C196.118 88.918 196.554 89.3328 197.133 89.316C198.874 89.2652 200.602 88.946 202.231 88.3717C204.186 87.6823 205.95 86.6423 207.397 85.3252C208.845 84.0082 209.941 82.4465 210.608 80.7508C211.163 79.3381 211.41 77.8612 211.337 76.3936C211.313 75.9058 210.79 75.5703 210.215 75.6404V75.6404C209.64 75.7106 209.232 76.1598 209.249 76.6479C209.29 77.8577 209.079 79.0728 208.621 80.2369C208.052 81.684 207.117 83.0167 205.881 84.1407C204.646 85.2646 203.141 86.1522 201.472 86.7405C200.13 87.2138 198.709 87.484 197.275 87.5411C196.697 87.5641 196.196 87.9409 196.157 88.4294V88.4294Z" fill="black"/>
<path d="M195.691 82.9588C195.652 83.4522 196.093 83.8733 196.677 83.8324C197.593 83.7682 198.498 83.582 199.357 83.2789C200.547 82.8596 201.619 82.2269 202.5 81.4258C203.381 80.6246 204.047 79.6746 204.453 78.6432C204.746 77.8977 204.898 77.1228 204.904 76.3478C204.908 75.8541 204.376 75.5147 203.796 75.5855V75.5855C203.215 75.6563 202.808 76.1113 202.781 76.605C202.753 77.1186 202.641 77.6299 202.447 78.1242C202.14 78.9046 201.635 79.6234 200.969 80.2296C200.303 80.8357 199.491 81.3144 198.591 81.6317C198.021 81.8327 197.425 81.9657 196.82 82.0283C196.238 82.0884 195.731 82.4654 195.691 82.9588V82.9588Z" fill="black"/>
<path d="M220.625 60.4241L230.524 50.5246L232.076 51.6212L223.378 60.3186L228.621 64.0239L227.419 65.2259L220.625 60.4241ZM232.879 69.3745C232.03 68.7743 231.405 68.1075 231.005 67.3741C230.614 66.6312 230.416 65.8634 230.41 65.0705C230.424 64.2759 230.617 63.479 230.989 62.6797C231.371 61.8882 231.916 61.1389 232.623 60.4318C233.594 59.4607 234.674 58.7433 235.862 58.2798C237.071 57.8145 238.3 57.645 239.549 57.7713C240.807 57.8882 241.997 58.343 243.118 59.1356C243.957 59.7281 244.576 60.3911 244.976 61.1245C245.387 61.8656 245.591 62.6373 245.588 63.4396C245.585 64.2419 245.397 65.0341 245.024 65.8162C244.661 66.6061 244.126 67.3545 243.419 68.0616C242.712 68.7687 241.922 69.3449 241.05 69.7902C240.188 70.2431 239.287 70.5399 238.347 70.6804C237.417 70.8115 236.483 70.779 235.546 70.583C234.618 70.3776 233.729 69.9747 232.879 69.3745ZM234.039 68.2149C234.878 68.8074 235.754 69.1293 236.669 69.1806C237.584 69.2319 238.48 69.0607 239.358 68.6668C240.255 68.2711 241.081 67.6962 241.835 66.942C242.344 66.4328 242.747 65.881 243.044 65.2865C243.342 64.692 243.511 64.0954 243.552 63.4969C243.602 62.8889 243.496 62.3072 243.234 61.7517C242.983 61.204 242.558 60.7185 241.959 60.2953C241.164 59.7335 240.303 59.4231 239.378 59.3641C238.463 59.3128 237.556 59.4764 236.657 59.8549C235.769 60.2411 234.952 60.8066 234.208 61.5514C233.698 62.0605 233.285 62.6132 232.968 63.2095C232.67 63.804 232.497 64.4053 232.446 65.0133C232.396 65.6212 232.496 66.1991 232.747 66.7468C233.01 67.3023 233.44 67.7916 234.039 68.2149ZM244.472 77.567C243.59 76.9437 243.004 76.1916 242.714 75.3109C242.424 74.4301 242.446 73.4882 242.78 72.4852C243.123 71.4728 243.79 70.4716 244.78 69.4816C245.836 68.4257 246.971 67.6432 248.186 67.1343C249.411 66.6159 250.636 66.4036 251.862 66.4974C253.108 66.5895 254.28 67.0241 255.38 67.8014C256.088 68.3015 256.644 68.8233 257.048 69.3666C257.453 69.9099 257.782 70.4726 258.037 71.0545L256.348 71.7678C256.107 71.2277 255.818 70.7177 255.481 70.2377C255.154 69.7654 254.702 69.3253 254.125 68.9174C253.439 68.4326 252.669 68.162 251.815 68.1055C250.97 68.0395 250.083 68.2014 249.155 68.591C248.237 68.9884 247.335 69.6302 246.449 70.5164C245.657 71.3084 245.12 72.0873 244.837 72.853C244.564 73.6094 244.527 74.3154 244.726 74.971C244.925 75.6267 245.351 76.1854 246.005 76.6471C246.614 77.0781 247.262 77.3506 247.947 77.4646C248.652 77.5769 249.259 77.6114 249.767 77.5681L251.931 75.4044L249.562 73.7307L250.623 72.67L254.461 75.3826L249.214 80.6293L247.843 79.6597L248.832 78.6698C248.159 78.6927 247.428 78.6343 246.638 78.4947C245.858 78.3456 245.136 78.0364 244.472 77.567ZM256.31 85.9336C255.461 85.3334 254.836 84.6666 254.436 83.9332C254.045 83.1904 253.847 82.4225 253.84 81.6296C253.854 80.835 254.047 80.0381 254.419 79.2389C254.802 78.4473 255.347 77.698 256.054 76.9909C257.025 76.0198 258.105 75.3024 259.293 74.8389C260.502 74.3736 261.73 74.2041 262.979 74.3304C264.238 74.4473 265.427 74.9021 266.549 75.6947C267.387 76.2872 268.007 76.9502 268.407 77.6836C268.818 78.4247 269.022 79.1964 269.019 79.9987C269.016 80.801 268.827 81.5932 268.454 82.3753C268.092 83.1652 267.557 83.9136 266.85 84.6207C266.143 85.3278 265.353 85.904 264.48 86.3493C263.618 86.8022 262.718 87.099 261.778 87.2395C260.848 87.3706 259.914 87.3381 258.976 87.1421C258.048 86.9367 257.159 86.5339 256.31 85.9336ZM257.47 84.774C258.308 85.3665 259.185 85.6884 260.1 85.7397C261.015 85.7911 261.911 85.6198 262.788 85.2259C263.686 84.8302 264.511 84.2553 265.266 83.5011C265.775 82.9919 266.178 82.4401 266.475 81.8456C266.772 81.2511 266.941 80.6545 266.982 80.056C267.033 79.448 266.927 78.8663 266.665 78.3108C266.413 77.7631 265.988 77.2776 265.389 76.8544C264.594 76.2926 263.734 75.9822 262.808 75.9232C261.893 75.8719 260.986 76.0355 260.087 76.414C259.199 76.8002 258.383 77.3657 257.638 78.1105C257.129 78.6196 256.716 79.1723 256.398 79.7686C256.101 80.3631 255.927 80.9644 255.877 81.5724C255.826 82.1803 255.927 82.7582 256.178 83.3059C256.44 83.8614 256.871 84.3507 257.47 84.774Z" fill="black"/>
<path d="M81.6133 196.429L83.4942 194.548L84.3028 190.352L85.2955 190.474L84.5329 194.22L88.7298 192.95L89.0312 193.694L84.27 195.096L82.3891 196.977L81.6133 196.429ZM86.2584 199.856C85.8556 199.572 85.5737 199.236 85.4127 198.848C85.2565 198.456 85.2296 198.051 85.3321 197.633C85.4447 197.213 85.6895 196.815 86.0667 196.438C86.4626 196.042 86.897 195.766 87.3696 195.609C87.8423 195.452 88.317 195.41 88.7938 195.481C89.2706 195.553 89.7077 195.729 90.1051 196.01C90.5025 196.291 90.7813 196.62 90.9416 196.999C91.1072 197.382 91.1388 197.782 91.0363 198.2C90.9441 198.618 90.7023 199.022 90.311 199.414C89.9197 199.805 89.4854 200.081 89.008 200.243C88.5354 200.399 88.0583 200.444 87.5768 200.378C87.1008 200.315 86.6613 200.141 86.2584 199.856ZM86.8241 199.291C87.2542 199.595 87.714 199.706 88.2034 199.626C88.6975 199.541 89.1449 199.298 89.5456 198.897C89.7907 198.652 89.9547 198.385 90.0376 198.098C90.1253 197.806 90.127 197.526 90.0426 197.257C89.9685 196.987 89.8007 196.76 89.5394 196.575C89.1093 196.271 88.6519 196.157 88.1672 196.233C87.6826 196.309 87.2375 196.55 86.8321 196.955C86.587 197.2 86.4182 197.471 86.3259 197.768C86.2382 198.06 86.2315 198.341 86.3057 198.61C86.39 198.879 86.5628 199.106 86.8241 199.291ZM90.739 203.023C90.494 202.85 90.3074 202.641 90.1792 202.398C90.051 202.154 90.0178 201.886 90.0797 201.591C90.1463 201.293 90.347 200.976 90.6817 200.641L93.0717 198.251L93.8067 198.77L91.5015 201.076C91.2139 201.363 91.0631 201.635 91.0491 201.89C91.0398 202.141 91.1713 202.363 91.4435 202.555C91.6667 202.713 91.9195 202.827 92.2018 202.898C92.4943 202.968 92.7881 202.995 93.0835 202.978L95.8483 200.213L96.5832 200.733L93.8609 203.455C93.6582 203.658 93.5728 203.827 93.6048 203.962C93.647 204.096 93.7279 204.206 93.8477 204.291L93.1976 204.676C92.6913 204.318 92.5526 203.922 92.7817 203.489C92.4214 203.524 92.0619 203.507 91.703 203.439C91.3489 203.365 91.0275 203.227 90.739 203.023ZM94.3641 205.44L98.0411 201.763L98.7515 202.265L97.9525 203.064C98.1789 202.959 98.4179 202.882 98.6697 202.835C98.9262 202.783 99.1843 202.78 99.4441 202.827C99.7086 202.869 99.9606 202.975 100.2 203.144C100.282 203.202 100.359 203.264 100.431 203.331C100.508 203.394 100.567 203.451 100.607 203.504L99.7288 204.006C99.6631 203.895 99.5594 203.79 99.4179 203.69C99.2165 203.547 98.9737 203.46 98.6896 203.428C98.4109 203.4 98.108 203.448 97.7808 203.57C97.4591 203.697 97.1379 203.921 96.8174 204.241L95.0991 205.959L94.3641 205.44ZM101.704 210.772C101.301 210.488 101.028 210.157 100.883 209.782C100.749 209.405 100.744 209.015 100.868 208.612C100.997 208.205 101.25 207.812 101.627 207.435C101.98 207.082 102.385 206.816 102.841 206.639C103.302 206.466 103.772 206.405 104.252 206.454C104.737 206.499 105.189 206.67 105.608 206.966C105.848 207.135 106.038 207.302 106.18 207.467C106.328 207.636 106.451 207.815 106.549 208.005L105.791 208.386C105.704 208.213 105.604 208.062 105.491 207.933C105.388 207.804 105.252 207.68 105.083 207.561C104.702 207.291 104.261 207.185 103.759 207.24C103.267 207.295 102.812 207.532 102.392 207.952C102.138 208.206 101.961 208.476 101.863 208.76C101.764 209.045 101.749 209.315 101.817 209.573C101.89 209.834 102.058 210.057 102.319 210.241C102.526 210.388 102.722 210.494 102.906 210.56C103.096 210.621 103.313 210.674 103.557 210.718L103.248 211.417C102.999 211.378 102.745 211.307 102.486 211.204C102.231 211.105 101.971 210.961 101.704 210.772ZM105.55 213.49C105.147 213.206 104.865 212.87 104.704 212.482C104.548 212.09 104.521 211.685 104.624 211.267C104.736 210.847 104.981 210.449 105.358 210.072C105.754 209.676 106.189 209.4 106.661 209.243C107.134 209.086 107.609 209.044 108.085 209.115C108.562 209.187 108.999 209.363 109.397 209.644C109.794 209.924 110.073 210.254 110.233 210.633C110.399 211.016 110.43 211.416 110.328 211.834C110.236 212.252 109.994 212.656 109.603 213.048C109.211 213.439 108.777 213.715 108.3 213.877C107.827 214.033 107.35 214.078 106.868 214.012C106.392 213.949 105.953 213.775 105.55 213.49ZM106.116 212.925C106.546 213.229 107.006 213.34 107.495 213.26C107.989 213.174 108.436 212.931 108.837 212.531C109.082 212.286 109.246 212.019 109.329 211.732C109.417 211.44 109.419 211.16 109.334 210.891C109.26 210.621 109.092 210.394 108.831 210.209C108.401 209.905 107.943 209.791 107.459 209.867C106.974 209.943 106.529 210.184 106.124 210.589C105.879 210.834 105.71 211.105 105.617 211.402C105.53 211.694 105.523 211.975 105.597 212.244C105.682 212.513 105.854 212.74 106.116 212.925ZM108.727 215.591L112.404 211.914L113.115 212.416L112.499 213.031C112.85 212.941 113.208 212.912 113.574 212.946C113.945 212.975 114.28 213.095 114.58 213.306C114.917 213.545 115.121 213.81 115.192 214.102C115.269 214.397 115.232 214.693 115.084 214.99C115.469 214.893 115.852 214.849 116.232 214.86C116.616 214.875 116.98 215.003 117.323 215.246C117.786 215.573 118.002 215.942 117.971 216.355C117.949 216.766 117.736 217.175 117.331 217.58L114.934 219.977L114.199 219.458L116.546 217.11C116.801 216.856 116.938 216.602 116.957 216.351C116.981 216.094 116.874 215.881 116.634 215.712C116.389 215.539 116.08 215.457 115.708 215.468C115.345 215.477 114.979 215.532 114.609 215.632L112.198 218.044L111.463 217.524L113.81 215.177C114.065 214.922 114.202 214.669 114.221 214.417C114.246 214.161 114.138 213.948 113.898 213.779C113.659 213.609 113.355 213.527 112.987 213.533C112.624 213.534 112.26 213.582 111.895 213.678L109.462 216.11L108.727 215.591ZM114.799 222.537L119.091 218.245C119.252 218.085 119.319 217.939 119.292 217.808C119.276 217.675 119.197 217.559 119.055 217.459L119.705 217.074C120.206 217.428 120.347 217.821 120.128 218.254C120.253 218.221 120.423 218.2 120.637 218.191C120.856 218.185 121.091 218.21 121.342 218.267C121.598 218.327 121.843 218.439 122.077 218.605C122.403 218.836 122.633 219.127 122.765 219.478C122.907 219.828 122.924 220.206 122.816 220.612C122.712 221.013 122.459 221.414 122.059 221.815C121.667 222.206 121.236 222.488 120.765 222.662C120.299 222.831 119.841 222.898 119.393 222.863C118.955 222.827 118.573 222.694 118.246 222.463C117.996 222.286 117.804 222.078 117.671 221.839C117.543 221.596 117.465 221.368 117.436 221.155L115.534 223.057L114.799 222.537ZM118.665 221.794C119.035 222.055 119.46 222.142 119.938 222.054C120.427 221.965 120.876 221.715 121.286 221.305C121.569 221.022 121.752 220.737 121.835 220.449C121.923 220.166 121.924 219.901 121.836 219.654C121.754 219.411 121.596 219.206 121.362 219.041C121.128 218.876 120.863 218.777 120.569 218.746C120.285 218.715 120.035 218.723 119.819 218.772L118.009 220.582C118.023 220.809 118.081 221.031 118.181 221.246C118.286 221.457 118.447 221.64 118.665 221.794ZM122.748 225.645C122.394 225.395 122.151 225.09 122.018 224.73C121.885 224.371 121.873 223.988 121.981 223.582C122.1 223.175 122.353 222.779 122.739 222.392C123.107 222.024 123.522 221.754 123.983 221.581C124.449 221.412 124.917 221.348 125.386 221.39C125.865 221.431 126.301 221.59 126.693 221.867C126.938 222.041 127.121 222.234 127.241 222.448C127.372 222.661 127.457 222.874 127.495 223.086L127.792 222.789L128.462 223.262L125.676 226.048C125.497 226.227 125.428 226.38 125.469 226.506C125.521 226.631 125.607 226.736 125.726 226.82L125.076 227.206C124.554 226.836 124.422 226.429 124.68 225.985C124.404 226.047 124.094 226.065 123.749 226.038C123.414 226.011 123.08 225.88 122.748 225.645ZM123.477 225.195C123.684 225.341 123.923 225.437 124.193 225.483C124.467 225.524 124.733 225.523 124.99 225.479L126.963 223.507C126.906 223.313 126.813 223.127 126.685 222.948C126.568 222.768 126.411 222.609 126.215 222.471C125.954 222.286 125.663 222.182 125.344 222.157C125.035 222.132 124.719 222.182 124.398 222.309C124.081 222.431 123.785 222.629 123.512 222.902C123.248 223.166 123.069 223.442 122.976 223.73C122.888 224.014 122.886 224.286 122.969 224.546C123.057 224.801 123.227 225.018 123.477 225.195ZM126.248 227.973L129.925 224.297L130.636 224.799L130.02 225.414C130.371 225.324 130.729 225.295 131.095 225.329C131.472 225.361 131.823 225.493 132.15 225.724C132.629 226.062 132.86 226.439 132.845 226.855C132.834 227.274 132.624 227.688 132.214 228.099L129.817 230.496L129.082 229.976L131.408 227.65C131.672 227.386 131.811 227.122 131.824 226.858C131.843 226.597 131.724 226.377 131.469 226.196C131.218 226.019 130.903 225.929 130.525 225.927C130.151 225.92 129.781 225.965 129.416 226.06L126.983 228.493L126.248 227.973ZM129.547 233.105C129.383 232.989 129.253 232.873 129.156 232.756C129.065 232.643 129.003 232.543 128.97 232.455L129.663 232.04C129.696 232.119 129.749 232.205 129.823 232.298C129.898 232.391 129.995 232.48 130.115 232.565C130.343 232.726 130.611 232.807 130.918 232.806C131.225 232.806 131.646 232.678 132.182 232.421L132.794 232.129L132.402 231.852L133.976 227.449L134.884 227.656L133.406 231.838L137.673 229.676L138.124 230.381L132.874 232.97C132.338 233.235 131.872 233.409 131.475 233.49C131.078 233.571 130.725 233.575 130.417 233.502C130.109 233.43 129.819 233.297 129.547 233.105ZM137.804 236.14L141.481 232.463L142.191 232.965L141.576 233.581C141.927 233.49 142.285 233.462 142.651 233.495C143.027 233.528 143.379 233.66 143.705 233.891C144.185 234.229 144.416 234.606 144.4 235.021C144.39 235.441 144.18 235.855 143.77 236.265L141.373 238.662L140.638 238.143L142.964 235.817C143.228 235.553 143.367 235.289 143.38 235.024C143.399 234.764 143.28 234.544 143.024 234.363C142.774 234.186 142.459 234.096 142.08 234.094C141.706 234.087 141.337 234.131 140.971 234.227L138.539 236.66L137.804 236.14ZM144.177 240.789C143.823 240.539 143.58 240.234 143.447 239.875C143.314 239.515 143.302 239.133 143.41 238.727C143.529 238.32 143.782 237.923 144.168 237.537C144.536 237.169 144.95 236.899 145.411 236.726C145.878 236.556 146.346 236.493 146.815 236.535C147.294 236.576 147.73 236.735 148.122 237.012C148.367 237.185 148.55 237.379 148.67 237.592C148.801 237.806 148.886 238.018 148.924 238.231L149.221 237.934L149.891 238.407L147.105 241.193C146.926 241.372 146.857 241.524 146.898 241.65C146.95 241.775 147.035 241.88 147.155 241.965L146.505 242.35C145.982 241.981 145.85 241.574 146.109 241.129C145.833 241.191 145.523 241.209 145.178 241.183C144.843 241.155 144.509 241.024 144.177 240.789ZM144.906 240.339C145.113 240.485 145.351 240.581 145.621 240.627C145.896 240.668 146.162 240.667 146.419 240.624L148.392 238.651C148.335 238.458 148.242 238.271 148.114 238.093C147.997 237.913 147.84 237.754 147.644 237.615C147.382 237.431 147.092 237.326 146.773 237.302C146.464 237.276 146.148 237.327 145.827 237.453C145.509 237.575 145.214 237.773 144.941 238.046C144.677 238.31 144.498 238.586 144.405 238.875C144.317 239.158 144.314 239.43 144.398 239.69C144.486 239.946 144.656 240.162 144.906 240.339ZM147.677 243.118L151.354 239.441L152.065 239.943L151.449 240.558C151.8 240.468 152.158 240.44 152.524 240.473C152.895 240.502 153.23 240.622 153.529 240.834C153.867 241.072 154.071 241.337 154.142 241.629C154.219 241.924 154.182 242.22 154.034 242.518C154.419 242.42 154.802 242.377 155.181 242.387C155.566 242.402 155.93 242.53 156.273 242.773C156.736 243.1 156.952 243.47 156.921 243.882C156.899 244.293 156.686 244.702 156.281 245.107L153.884 247.504L153.149 246.985L155.496 244.637C155.751 244.383 155.888 244.129 155.907 243.878C155.931 243.621 155.824 243.408 155.584 243.239C155.339 243.066 155.03 242.984 154.658 242.995C154.295 243.004 153.929 243.059 153.559 243.16L151.148 245.571L150.413 245.051L152.76 242.704C153.015 242.449 153.152 242.196 153.171 241.944C153.196 241.688 153.088 241.475 152.848 241.306C152.609 241.136 152.305 241.054 151.937 241.06C151.574 241.061 151.21 241.109 150.845 241.205L148.412 243.637L147.677 243.118ZM156.763 249.684C156.154 249.253 155.836 248.744 155.812 248.155C155.797 247.565 156.094 246.967 156.702 246.359C157.07 245.991 157.477 245.719 157.922 245.543C158.378 245.366 158.832 245.297 159.286 245.336C159.744 245.37 160.164 245.522 160.545 245.792C160.953 246.08 161.213 246.396 161.324 246.741C161.445 247.084 161.445 247.433 161.321 247.789C161.198 248.144 160.981 248.477 160.67 248.788C160.505 248.953 160.336 249.108 160.165 249.252L157.192 247.151C156.897 247.53 156.767 247.897 156.802 248.252C156.838 248.606 157.043 248.917 157.419 249.182C157.664 249.355 157.906 249.49 158.144 249.586C158.387 249.677 158.634 249.751 158.884 249.807L158.511 250.473C158.24 250.41 157.958 250.315 157.666 250.189C157.369 250.068 157.068 249.9 156.763 249.684ZM157.7 246.629L160.027 248.274C160.386 247.916 160.558 247.567 160.544 247.227C160.531 246.888 160.342 246.589 159.977 246.332C159.661 246.108 159.303 246.02 158.903 246.067C158.508 246.11 158.107 246.297 157.7 246.629Z" fill="black"/>
<defs>
<filter id="filter0_f_514_300" x="0.94751" y="0.416992" width="410.771" height="365.635" filterUnits="userSpaceOnUse" color-interpolation-filters="sRGB">
<feFlood flood-opacity="0" result="BackgroundImageFix"/>
<feBlend mode="normal" in="SourceGraphic" in2="BackgroundImageFix" result="shape"/>
<feGaussianBlur stdDeviation="15" result="effect1_foregroundBlur_514_300"/>
</filter>
<linearGradient id="paint0_linear_514_300" x1="0" y1="0" x2="194.474" y2="284.009" gradientUnits="userSpaceOnUse">
<stop stop-color="#FC6B85"/>
<stop offset="0.1875" stop-color="#FC7B8E"/>
<stop offset="0.4375" stop-color="#F13DA3"/>
<stop offset="0.796975" stop-color="#94ABEF"/>
<stop offset="1" stop-color="#CFE8F5"/>
</linearGradient>
<linearGradient id="paint1_linear_514_300" x1="0" y1="0" x2="194.474" y2="284.009" gradientUnits="userSpaceOnUse">
<stop stop-color="#FC6B85"/>
<stop offset="0.1875" stop-color="#FC7B8E"/>
<stop offset="0.4375" stop-color="#F13DA3"/>
<stop offset="0.796975" stop-color="#94ABEF"/>
<stop offset="1" stop-color="#CFE8F5"/>
</linearGradient>
</defs>
</svg>
