<svg width="1247" height="997" viewBox="0 0 1247 997" fill="none" xmlns="http://www.w3.org/2000/svg">
<g filter="url(#filter0_d_488_312)">
<rect x="14" y="230.555" width="488" height="700" rx="30" transform="rotate(-15 14 230.555)" fill="url(#paint0_linear_488_312)"/>
</g>
<path d="M143.808 353.119C144.86 353.942 146.389 353.76 147.132 352.649C149.369 349.309 150.979 345.582 151.879 341.65C152.958 336.931 152.986 332.031 151.96 327.3C150.935 322.568 148.88 318.121 145.943 314.272C143.496 311.066 140.487 308.34 137.068 306.226C135.931 305.523 134.465 305.99 133.847 307.175V307.175C133.229 308.36 133.696 309.812 134.823 310.53C137.617 312.306 140.081 314.565 142.097 317.207C144.603 320.492 146.356 324.287 147.232 328.325C148.107 332.363 148.083 336.544 147.162 340.571C146.421 343.811 145.114 346.888 143.307 349.662C142.578 350.781 142.755 352.297 143.808 353.119V353.119Z" fill="white"/>
<path d="M131.997 350.963C132.824 351.61 134.025 351.466 134.608 350.594C136.365 347.97 137.631 345.041 138.338 341.952C139.186 338.244 139.208 334.395 138.402 330.678C137.596 326.961 135.982 323.466 133.674 320.442C131.752 317.923 129.387 315.782 126.701 314.121C125.808 313.569 124.656 313.936 124.171 314.866V314.866C123.686 315.797 124.052 316.938 124.938 317.501C127.133 318.897 129.069 320.672 130.653 322.748C132.622 325.329 133.999 328.311 134.687 331.483C135.375 334.656 135.356 337.94 134.633 341.105C134.05 343.65 133.023 346.068 131.603 348.247C131.031 349.127 131.17 350.317 131.997 350.963V350.963Z" fill="white"/>
<path d="M121.775 345.059C122.61 345.712 123.828 345.569 124.374 344.66C125.232 343.234 125.861 341.678 126.234 340.048C126.749 337.792 126.763 335.451 126.273 333.19C125.782 330.928 124.801 328.803 123.397 326.963C122.382 325.634 121.165 324.478 119.794 323.535C118.921 322.934 117.753 323.308 117.263 324.248V324.248C116.773 325.188 117.15 326.336 117.999 326.97C118.883 327.63 119.673 328.41 120.346 329.292C121.408 330.684 122.15 332.292 122.521 334.003C122.892 335.714 122.882 337.485 122.492 339.192C122.245 340.273 121.849 341.311 121.318 342.277C120.807 343.206 120.94 344.407 121.775 345.059V345.059Z" fill="white"/>
<path d="M105.754 290.187L99.4126 266.522L102.624 265.661L108.195 286.453L119.048 283.545L119.818 286.419L105.754 290.187ZM131.58 283.702C129.822 284.173 128.171 284.277 126.627 284.014C125.077 283.729 123.669 283.164 122.404 282.32C121.156 281.446 120.073 280.335 119.156 278.987C118.262 277.632 117.588 276.109 117.135 274.419C116.513 272.098 116.397 269.906 116.787 267.845C117.193 265.756 118.088 263.958 119.472 262.451C120.85 260.923 122.7 259.847 125.021 259.225C126.757 258.76 128.396 258.659 129.94 258.922C131.507 259.178 132.926 259.74 134.197 260.608C135.468 261.475 136.548 262.575 137.436 263.907C138.347 265.233 139.029 266.741 139.482 268.431C139.935 270.122 140.101 271.78 139.981 273.407C139.884 275.027 139.502 276.53 138.835 277.917C138.162 279.281 137.225 280.474 136.025 281.496C134.82 282.496 133.338 283.231 131.58 283.702ZM130.837 280.93C132.572 280.465 133.914 279.658 134.863 278.51C135.812 277.362 136.389 276 136.594 274.423C136.816 272.817 136.686 271.113 136.202 269.31C135.876 268.093 135.382 266.969 134.719 265.939C134.057 264.909 133.27 264.045 132.358 263.347C131.44 262.626 130.416 262.14 129.286 261.887C128.178 261.629 127.004 261.665 125.764 261.997C124.119 262.438 122.811 263.236 121.84 264.39C120.891 265.538 120.291 266.906 120.041 268.495C119.813 270.078 119.937 271.76 120.414 273.54C120.741 274.758 121.227 275.895 121.873 276.954C122.535 277.985 123.325 278.86 124.243 279.58C125.161 280.301 126.174 280.79 127.282 281.049C128.412 281.302 129.597 281.262 130.837 280.93ZM155.574 277.273C153.749 277.762 151.999 277.723 150.326 277.157C148.652 276.591 147.177 275.549 145.901 274.031C144.618 272.49 143.66 270.537 143.026 268.17C142.35 265.646 142.183 263.311 142.526 261.166C142.863 258.998 143.687 257.159 144.997 255.648C146.324 254.109 148.126 253.035 150.402 252.425C151.867 252.032 153.223 251.862 154.469 251.915C155.715 251.967 156.92 252.139 158.085 252.431L157.618 255.419C156.532 255.154 155.448 254.986 154.366 254.913C153.306 254.835 152.179 254.956 150.985 255.276C149.565 255.656 148.405 256.378 147.506 257.44C146.601 258.48 146.018 259.819 145.757 261.46C145.519 263.094 145.683 264.97 146.251 267.089C146.758 268.982 147.486 270.526 148.434 271.721C149.377 272.894 150.463 273.702 151.693 274.146C152.923 274.589 154.214 274.63 155.566 274.267C156.828 273.929 157.875 273.371 158.705 272.593C159.552 271.786 160.181 271.026 160.594 270.311L159.208 265.139L154.306 266.452L153.626 263.917L161.571 261.788L164.932 274.33L162.092 275.091L161.458 272.725C160.856 273.635 160.07 274.534 159.101 275.422C158.125 276.287 156.949 276.904 155.574 277.273ZM180.079 270.707C178.321 271.178 176.67 271.282 175.126 271.019C173.576 270.734 172.169 270.169 170.903 269.324C169.655 268.451 168.572 267.34 167.655 265.991C166.761 264.637 166.087 263.114 165.634 261.424C165.012 259.102 164.896 256.911 165.286 254.85C165.692 252.76 166.587 250.962 167.971 249.456C169.349 247.927 171.199 246.852 173.52 246.23C175.256 245.765 176.896 245.664 178.439 245.927C180.006 246.183 181.425 246.745 182.696 247.612C183.967 248.48 185.047 249.579 185.935 250.911C186.846 252.237 187.528 253.746 187.981 255.436C188.434 257.126 188.6 258.785 188.481 260.411C188.383 262.032 188.001 263.535 187.334 264.922C186.661 266.286 185.724 267.479 184.524 268.501C183.319 269.5 181.837 270.236 180.079 270.707ZM179.336 267.934C181.072 267.469 182.414 266.663 183.362 265.515C184.311 264.367 184.888 263.005 185.093 261.428C185.315 259.822 185.185 258.118 184.702 256.315C184.375 255.098 183.881 253.974 183.219 252.944C182.556 251.913 181.769 251.049 180.857 250.352C179.939 249.631 178.915 249.145 177.785 248.892C176.677 248.633 175.503 248.67 174.263 249.002C172.618 249.443 171.31 250.24 170.339 251.394C169.39 252.542 168.791 253.911 168.54 255.5C168.312 257.083 168.436 258.765 168.913 260.545C169.24 261.762 169.726 262.9 170.372 263.959C171.034 264.989 171.824 265.865 172.742 266.585C173.66 267.305 174.673 267.795 175.781 268.054C176.911 268.306 178.096 268.267 179.336 267.934Z" fill="white"/>
<g filter="url(#filter1_d_488_312)">
<rect x="385.613" y="5" width="488" height="700" rx="30" fill="url(#paint1_linear_488_312)"/>
</g>
<path d="M465.232 162.638C466.036 163.705 467.56 163.924 468.565 163.044C471.59 160.396 474.11 157.213 475.997 153.648C478.261 149.369 479.556 144.644 479.79 139.808C480.023 134.973 479.19 130.145 477.349 125.667C475.816 121.936 473.614 118.525 470.859 115.598C469.943 114.625 468.405 114.697 467.502 115.681V115.681C466.599 116.666 466.673 118.189 467.577 119.174C469.815 121.613 471.611 124.433 472.874 127.507C474.445 131.328 475.156 135.448 474.957 139.575C474.757 143.701 473.652 147.734 471.72 151.385C470.166 154.323 468.107 156.956 465.643 159.168C464.649 160.061 464.428 161.571 465.232 162.638V162.638Z" fill="white"/>
<path d="M454.382 157.498C455.014 158.336 456.21 158.509 457 157.817C459.377 155.737 461.357 153.236 462.839 150.435C464.618 147.073 465.635 143.36 465.819 139.561C466.003 135.762 465.348 131.969 463.902 128.451C462.697 125.52 460.967 122.84 458.802 120.54C458.083 119.775 456.875 119.832 456.165 120.605V120.605C455.456 121.379 455.514 122.576 456.224 123.349C457.983 125.265 459.394 127.481 460.387 129.896C461.621 132.898 462.179 136.135 462.023 139.378C461.866 142.62 460.998 145.788 459.48 148.657C458.258 150.965 456.641 153.035 454.705 154.772C453.924 155.474 453.75 156.659 454.382 157.498V157.498Z" fill="white"/>
<path d="M446.036 149.15C446.674 149.996 447.887 150.173 448.65 149.437C449.848 148.281 450.858 146.941 451.64 145.463C452.722 143.418 453.341 141.159 453.453 138.848C453.565 136.537 453.166 134.23 452.287 132.09C451.651 130.543 450.775 129.111 449.694 127.846C449.006 127.04 447.781 127.099 447.065 127.88V127.88C446.348 128.661 446.415 129.867 447.071 130.699C447.754 131.565 448.315 132.524 448.737 133.549C449.402 135.169 449.704 136.914 449.619 138.663C449.535 140.412 449.066 142.12 448.248 143.668C447.729 144.648 447.078 145.548 446.315 146.344C445.582 147.109 445.399 148.303 446.036 149.15V149.15Z" fill="white"/>
<path d="M444.763 92V67.5H448.088V89.025H459.323V92H444.763ZM471.388 92.42C469.568 92.42 467.946 92.0933 466.523 91.44C465.1 90.7633 463.886 89.8533 462.883 88.71C461.903 87.5433 461.145 86.19 460.608 84.65C460.095 83.11 459.838 81.465 459.838 79.715C459.838 77.3117 460.293 75.165 461.203 73.275C462.136 71.3617 463.466 69.8567 465.193 68.76C466.92 67.64 468.985 67.08 471.388 67.08C473.185 67.08 474.795 67.4067 476.218 68.06C477.665 68.7133 478.89 69.6233 479.893 70.79C480.896 71.9567 481.655 73.2983 482.168 74.815C482.705 76.3317 482.973 77.965 482.973 79.715C482.973 81.465 482.705 83.11 482.168 84.65C481.655 86.19 480.896 87.5433 479.893 88.71C478.89 89.8533 477.676 90.7633 476.253 91.44C474.83 92.0933 473.208 92.42 471.388 92.42ZM471.388 89.55C473.185 89.55 474.69 89.1183 475.903 88.255C477.116 87.3917 478.026 86.225 478.633 84.755C479.263 83.2617 479.578 81.5817 479.578 79.715C479.578 78.455 479.391 77.2417 479.018 76.075C478.645 74.9083 478.108 73.87 477.408 72.96C476.708 72.0267 475.845 71.2917 474.818 70.755C473.815 70.2183 472.671 69.95 471.388 69.95C469.685 69.95 468.215 70.3817 466.978 71.245C465.765 72.1083 464.831 73.275 464.178 74.745C463.548 76.215 463.233 77.8717 463.233 79.715C463.233 80.975 463.408 82.2 463.758 83.39C464.131 84.5567 464.668 85.6067 465.368 86.54C466.068 87.4733 466.92 88.2083 467.923 88.745C468.95 89.2817 470.105 89.55 471.388 89.55ZM496.229 92.42C494.339 92.42 492.659 91.93 491.189 90.95C489.719 89.97 488.564 88.5817 487.724 86.785C486.884 84.965 486.464 82.83 486.464 80.38C486.464 77.7667 486.907 75.4683 487.794 73.485C488.681 71.4783 489.952 69.915 491.609 68.795C493.289 67.6517 495.307 67.08 497.664 67.08C499.181 67.08 500.534 67.2667 501.724 67.64C502.914 68.0133 504.034 68.4917 505.084 69.075L503.859 71.84C502.879 71.3033 501.876 70.86 500.849 70.51C499.846 70.16 498.726 69.985 497.489 69.985C496.019 69.985 494.712 70.3817 493.569 71.175C492.426 71.945 491.516 73.0883 490.839 74.605C490.186 76.1217 489.859 77.9767 489.859 80.17C489.859 82.13 490.162 83.81 490.769 85.21C491.376 86.5867 492.216 87.6483 493.289 88.395C494.362 89.1417 495.599 89.515 496.999 89.515C498.306 89.515 499.461 89.2467 500.464 88.71C501.491 88.15 502.296 87.5783 502.879 86.995V81.64H497.804V79.015H506.029V92H503.089V89.55C502.272 90.2733 501.281 90.9383 500.114 91.545C498.947 92.1283 497.652 92.42 496.229 92.42ZM521.598 92.42C519.778 92.42 518.156 92.0933 516.733 91.44C515.31 90.7633 514.096 89.8533 513.093 88.71C512.113 87.5433 511.355 86.19 510.818 84.65C510.305 83.11 510.048 81.465 510.048 79.715C510.048 77.3117 510.503 75.165 511.413 73.275C512.346 71.3617 513.676 69.8567 515.403 68.76C517.13 67.64 519.195 67.08 521.598 67.08C523.395 67.08 525.005 67.4067 526.428 68.06C527.875 68.7133 529.1 69.6233 530.103 70.79C531.106 71.9567 531.865 73.2983 532.378 74.815C532.915 76.3317 533.183 77.965 533.183 79.715C533.183 81.465 532.915 83.11 532.378 84.65C531.865 86.19 531.106 87.5433 530.103 88.71C529.1 89.8533 527.886 90.7633 526.463 91.44C525.04 92.0933 523.418 92.42 521.598 92.42ZM521.598 89.55C523.395 89.55 524.9 89.1183 526.113 88.255C527.326 87.3917 528.236 86.225 528.843 84.755C529.473 83.2617 529.788 81.5817 529.788 79.715C529.788 78.455 529.601 77.2417 529.228 76.075C528.855 74.9083 528.318 73.87 527.618 72.96C526.918 72.0267 526.055 71.2917 525.028 70.755C524.025 70.2183 522.881 69.95 521.598 69.95C519.895 69.95 518.425 70.3817 517.188 71.245C515.975 72.1083 515.041 73.275 514.388 74.745C513.758 76.215 513.443 77.8717 513.443 79.715C513.443 80.975 513.618 82.2 513.968 83.39C514.341 84.5567 514.878 85.6067 515.578 86.54C516.278 87.4733 517.13 88.2083 518.133 88.745C519.16 89.2817 520.315 89.55 521.598 89.55Z" fill="white"/>
<path d="M465.232 162.638C466.036 163.705 467.56 163.924 468.565 163.044C471.59 160.396 474.11 157.213 475.997 153.648C478.261 149.369 479.556 144.644 479.79 139.808C480.023 134.973 479.19 130.145 477.349 125.667C475.816 121.936 473.614 118.525 470.859 115.598C469.943 114.625 468.405 114.697 467.502 115.681V115.681C466.599 116.666 466.673 118.189 467.577 119.174C469.815 121.613 471.611 124.433 472.874 127.507C474.445 131.328 475.156 135.448 474.957 139.575C474.757 143.701 473.652 147.734 471.72 151.385C470.166 154.323 468.107 156.956 465.643 159.168C464.649 160.061 464.428 161.571 465.232 162.638V162.638Z" fill="white"/>
<path d="M454.382 157.498C455.014 158.336 456.21 158.509 457 157.817C459.377 155.737 461.357 153.236 462.839 150.435C464.618 147.073 465.635 143.36 465.819 139.561C466.003 135.762 465.348 131.969 463.902 128.451C462.697 125.52 460.967 122.84 458.802 120.54C458.083 119.775 456.875 119.832 456.165 120.605V120.605C455.456 121.379 455.514 122.576 456.224 123.349C457.983 125.265 459.394 127.481 460.387 129.896C461.621 132.898 462.179 136.135 462.023 139.378C461.866 142.62 460.998 145.788 459.48 148.657C458.258 150.965 456.641 153.035 454.705 154.772C453.924 155.474 453.75 156.659 454.382 157.498V157.498Z" fill="white"/>
<path d="M446.036 149.15C446.674 149.996 447.887 150.173 448.65 149.437C449.848 148.281 450.858 146.941 451.64 145.463C452.722 143.418 453.341 141.159 453.453 138.848C453.565 136.537 453.166 134.23 452.287 132.09C451.651 130.543 450.775 129.111 449.694 127.846C449.006 127.04 447.781 127.099 447.065 127.88V127.88C446.348 128.661 446.415 129.867 447.071 130.699C447.754 131.565 448.315 132.524 448.737 133.549C449.402 135.169 449.704 136.914 449.619 138.663C449.535 140.412 449.066 142.12 448.248 143.668C447.729 144.648 447.078 145.548 446.315 146.344C445.582 147.109 445.399 148.303 446.036 149.15V149.15Z" fill="white"/>
<path d="M444.763 92V67.5H448.088V89.025H459.323V92H444.763ZM471.388 92.42C469.568 92.42 467.946 92.0933 466.523 91.44C465.1 90.7633 463.886 89.8533 462.883 88.71C461.903 87.5433 461.145 86.19 460.608 84.65C460.095 83.11 459.838 81.465 459.838 79.715C459.838 77.3117 460.293 75.165 461.203 73.275C462.136 71.3617 463.466 69.8567 465.193 68.76C466.92 67.64 468.985 67.08 471.388 67.08C473.185 67.08 474.795 67.4067 476.218 68.06C477.665 68.7133 478.89 69.6233 479.893 70.79C480.896 71.9567 481.655 73.2983 482.168 74.815C482.705 76.3317 482.973 77.965 482.973 79.715C482.973 81.465 482.705 83.11 482.168 84.65C481.655 86.19 480.896 87.5433 479.893 88.71C478.89 89.8533 477.676 90.7633 476.253 91.44C474.83 92.0933 473.208 92.42 471.388 92.42ZM471.388 89.55C473.185 89.55 474.69 89.1183 475.903 88.255C477.116 87.3917 478.026 86.225 478.633 84.755C479.263 83.2617 479.578 81.5817 479.578 79.715C479.578 78.455 479.391 77.2417 479.018 76.075C478.645 74.9083 478.108 73.87 477.408 72.96C476.708 72.0267 475.845 71.2917 474.818 70.755C473.815 70.2183 472.671 69.95 471.388 69.95C469.685 69.95 468.215 70.3817 466.978 71.245C465.765 72.1083 464.831 73.275 464.178 74.745C463.548 76.215 463.233 77.8717 463.233 79.715C463.233 80.975 463.408 82.2 463.758 83.39C464.131 84.5567 464.668 85.6067 465.368 86.54C466.068 87.4733 466.92 88.2083 467.923 88.745C468.95 89.2817 470.105 89.55 471.388 89.55ZM496.229 92.42C494.339 92.42 492.659 91.93 491.189 90.95C489.719 89.97 488.564 88.5817 487.724 86.785C486.884 84.965 486.464 82.83 486.464 80.38C486.464 77.7667 486.907 75.4683 487.794 73.485C488.681 71.4783 489.952 69.915 491.609 68.795C493.289 67.6517 495.307 67.08 497.664 67.08C499.181 67.08 500.534 67.2667 501.724 67.64C502.914 68.0133 504.034 68.4917 505.084 69.075L503.859 71.84C502.879 71.3033 501.876 70.86 500.849 70.51C499.846 70.16 498.726 69.985 497.489 69.985C496.019 69.985 494.712 70.3817 493.569 71.175C492.426 71.945 491.516 73.0883 490.839 74.605C490.186 76.1217 489.859 77.9767 489.859 80.17C489.859 82.13 490.162 83.81 490.769 85.21C491.376 86.5867 492.216 87.6483 493.289 88.395C494.362 89.1417 495.599 89.515 496.999 89.515C498.306 89.515 499.461 89.2467 500.464 88.71C501.491 88.15 502.296 87.5783 502.879 86.995V81.64H497.804V79.015H506.029V92H503.089V89.55C502.272 90.2733 501.281 90.9383 500.114 91.545C498.947 92.1283 497.652 92.42 496.229 92.42ZM521.598 92.42C519.778 92.42 518.156 92.0933 516.733 91.44C515.31 90.7633 514.096 89.8533 513.093 88.71C512.113 87.5433 511.355 86.19 510.818 84.65C510.305 83.11 510.048 81.465 510.048 79.715C510.048 77.3117 510.503 75.165 511.413 73.275C512.346 71.3617 513.676 69.8567 515.403 68.76C517.13 67.64 519.195 67.08 521.598 67.08C523.395 67.08 525.005 67.4067 526.428 68.06C527.875 68.7133 529.1 69.6233 530.103 70.79C531.106 71.9567 531.865 73.2983 532.378 74.815C532.915 76.3317 533.183 77.965 533.183 79.715C533.183 81.465 532.915 83.11 532.378 84.65C531.865 86.19 531.106 87.5433 530.103 88.71C529.1 89.8533 527.886 90.7633 526.463 91.44C525.04 92.0933 523.418 92.42 521.598 92.42ZM521.598 89.55C523.395 89.55 524.9 89.1183 526.113 88.255C527.326 87.3917 528.236 86.225 528.843 84.755C529.473 83.2617 529.788 81.5817 529.788 79.715C529.788 78.455 529.601 77.2417 529.228 76.075C528.855 74.9083 528.318 73.87 527.618 72.96C526.918 72.0267 526.055 71.2917 525.028 70.755C524.025 70.2183 522.881 69.95 521.598 69.95C519.895 69.95 518.425 70.3817 517.188 71.245C515.975 72.1083 515.041 73.275 514.388 74.745C513.758 76.215 513.443 77.8717 513.443 79.715C513.443 80.975 513.618 82.2 513.968 83.39C514.341 84.5567 514.878 85.6067 515.578 86.54C516.278 87.4733 517.13 88.2083 518.133 88.745C519.16 89.2817 520.315 89.55 521.598 89.55Z" fill="white"/>
<g filter="url(#filter2_d_488_312)">
<rect x="776.293" y="183.749" width="488" height="700" rx="30" transform="rotate(15.5 776.293 183.749)" fill="url(#paint2_linear_488_312)"/>
</g>
<path d="M1074.88 439.401C1075.38 440.64 1076.8 441.246 1078 440.656C1081.6 438.882 1084.86 436.459 1087.61 433.504C1090.9 429.956 1093.38 425.728 1094.85 421.117C1096.33 416.507 1096.78 411.628 1096.16 406.826C1095.64 402.826 1094.4 398.961 1092.49 395.42C1091.86 394.243 1090.36 393.915 1089.23 394.632V394.632C1088.1 395.349 1087.78 396.84 1088.4 398.025C1089.93 400.96 1090.93 404.149 1091.36 407.445C1091.89 411.543 1091.51 415.706 1090.25 419.641C1088.98 423.575 1086.87 427.184 1084.06 430.211C1081.8 432.646 1079.13 434.657 1076.18 436.156C1074.99 436.761 1074.38 438.162 1074.88 439.401V439.401Z" fill="white"/>
<path d="M1065.73 431.628C1066.13 432.601 1067.24 433.078 1068.18 432.614C1071.01 431.22 1073.57 429.317 1075.73 426.995C1078.32 424.208 1080.26 420.885 1081.42 417.263C1082.58 413.641 1082.93 409.807 1082.45 406.035C1082.04 402.892 1081.06 399.855 1079.57 397.073C1079.07 396.149 1077.89 395.891 1077 396.454V396.454C1076.12 397.017 1075.87 398.189 1076.35 399.119C1077.55 401.426 1078.34 403.931 1078.68 406.521C1079.09 409.74 1078.79 413.012 1077.8 416.103C1076.81 419.194 1075.15 422.03 1072.94 424.408C1071.17 426.321 1069.07 427.901 1066.75 429.079C1065.81 429.554 1065.34 430.655 1065.73 431.628V431.628Z" fill="white"/>
<path d="M1059.83 421.403C1060.23 422.386 1061.36 422.871 1062.28 422.358C1063.74 421.551 1065.06 420.518 1066.2 419.293C1067.77 417.597 1068.96 415.576 1069.66 413.373C1070.37 411.169 1070.58 408.838 1070.29 406.543C1070.07 404.884 1069.6 403.274 1068.88 401.772C1068.42 400.816 1067.23 400.556 1066.33 401.125V401.125C1065.44 401.694 1065.19 402.876 1065.61 403.85C1066.04 404.863 1066.34 405.934 1066.48 407.034C1066.7 408.77 1066.54 410.534 1066.01 412.201C1065.47 413.869 1064.58 415.398 1063.39 416.681C1062.63 417.493 1061.77 418.194 1060.83 418.765C1059.92 419.315 1059.44 420.421 1059.83 421.403V421.403Z" fill="white"/>
<path d="M1073.39 365.872L1079.74 342.207L1082.95 343.068L1077.38 363.859L1088.23 366.767L1087.46 369.641L1073.39 365.872ZM1099 373.169C1097.24 372.698 1095.76 371.963 1094.56 370.963C1093.36 369.941 1092.42 368.748 1091.75 367.384C1091.1 366.004 1090.72 364.5 1090.6 362.874C1090.5 361.253 1090.68 359.598 1091.13 357.908C1091.76 355.586 1092.75 353.63 1094.12 352.04C1095.52 350.434 1097.19 349.324 1099.14 348.712C1101.1 348.077 1103.24 348.07 1105.56 348.692C1107.3 349.157 1108.77 349.89 1109.97 350.889C1111.2 351.895 1112.15 353.091 1112.82 354.477C1113.48 355.864 1113.87 357.356 1113.97 358.954C1114.1 360.558 1113.93 362.205 1113.48 363.895C1113.03 365.586 1112.34 367.105 1111.43 368.454C1110.53 369.809 1109.45 370.919 1108.18 371.787C1106.91 372.631 1105.51 373.196 1103.96 373.482C1102.41 373.744 1100.76 373.64 1099 373.169ZM1099.75 370.397C1101.48 370.862 1103.05 370.834 1104.44 370.314C1105.84 369.795 1107.02 368.903 1107.98 367.64C1108.98 366.361 1109.72 364.82 1110.2 363.017C1110.53 361.8 1110.66 360.579 1110.6 359.356C1110.54 358.132 1110.3 356.99 1109.85 355.93C1109.42 354.847 1108.78 353.914 1107.92 353.13C1107.09 352.352 1106.06 351.797 1104.82 351.465C1103.17 351.024 1101.64 351.06 1100.22 351.574C1098.83 352.094 1097.62 352.979 1096.61 354.23C1095.62 355.487 1094.89 357.006 1094.41 358.786C1094.09 360.003 1093.94 361.232 1093.97 362.472C1094.03 363.695 1094.28 364.849 1094.71 365.931C1095.14 367.014 1095.78 367.944 1096.61 368.722C1097.46 369.507 1098.51 370.065 1099.75 370.397ZM1123 379.598C1121.17 379.109 1119.68 378.201 1118.51 376.874C1117.34 375.547 1116.59 373.907 1116.24 371.954C1115.9 369.979 1116.05 367.808 1116.68 365.441C1117.36 362.917 1118.38 360.812 1119.75 359.125C1121.13 357.417 1122.76 356.236 1124.65 355.583C1126.57 354.913 1128.67 354.883 1130.94 355.493C1132.41 355.886 1133.67 356.416 1134.72 357.085C1135.77 357.754 1136.73 358.505 1137.59 359.341L1135.69 361.694C1134.89 360.922 1134.03 360.234 1133.13 359.631C1132.25 359.033 1131.22 358.574 1130.02 358.254C1128.6 357.873 1127.24 357.918 1125.93 358.389C1124.62 358.837 1123.45 359.705 1122.4 360.995C1121.38 362.291 1120.58 363.998 1120.02 366.117C1119.51 368.01 1119.37 369.712 1119.59 371.221C1119.82 372.708 1120.36 373.951 1121.2 374.95C1122.04 375.949 1123.14 376.629 1124.49 376.992C1125.76 377.33 1126.94 377.37 1128.05 377.111C1129.19 376.836 1130.11 376.492 1130.82 376.079L1132.21 370.907L1127.31 369.593L1127.99 367.058L1135.93 369.187L1132.57 381.729L1129.73 380.968L1130.37 378.602C1129.39 379.089 1128.26 379.475 1126.98 379.759C1125.7 380.02 1124.37 379.967 1123 379.598ZM1147.5 386.164C1145.74 385.693 1144.26 384.958 1143.06 383.959C1141.86 382.937 1140.92 381.744 1140.25 380.379C1139.6 378.999 1139.22 377.495 1139.1 375.869C1139 374.249 1139.18 372.593 1139.63 370.903C1140.26 368.581 1141.25 366.626 1142.62 365.036C1144.02 363.429 1145.69 362.32 1147.64 361.707C1149.6 361.072 1151.74 361.066 1154.06 361.688C1155.8 362.153 1157.27 362.885 1158.47 363.884C1159.7 364.89 1160.65 366.086 1161.32 367.473C1161.98 368.859 1162.37 370.351 1162.47 371.949C1162.6 373.553 1162.43 375.2 1161.98 376.891C1161.53 378.581 1160.84 380.101 1159.93 381.449C1159.03 382.804 1157.95 383.915 1156.68 384.782C1155.41 385.627 1154 386.192 1152.45 386.477C1150.91 386.74 1149.26 386.635 1147.5 386.164ZM1148.24 383.392C1149.98 383.857 1151.55 383.83 1152.94 383.31C1154.34 382.79 1155.52 381.899 1156.48 380.636C1157.48 379.356 1158.22 377.815 1158.7 376.012C1159.03 374.795 1159.16 373.575 1159.1 372.351C1159.04 371.127 1158.79 369.986 1158.35 368.925C1157.92 367.843 1157.28 366.909 1156.42 366.125C1155.59 365.347 1154.56 364.792 1153.32 364.46C1151.67 364.019 1150.14 364.056 1148.72 364.569C1147.33 365.089 1146.12 365.975 1145.11 367.225C1144.12 368.482 1143.39 370.001 1142.91 371.782C1142.59 372.999 1142.44 374.227 1142.47 375.467C1142.53 376.691 1142.77 377.844 1143.21 378.927C1143.64 380.009 1144.28 380.94 1145.11 381.718C1145.96 382.502 1147.01 383.06 1148.24 383.392Z" fill="white"/>
<defs>
<filter id="filter0_d_488_312" x="0.734863" y="105.986" width="659.075" height="808.981" filterUnits="userSpaceOnUse" color-interpolation-filters="sRGB">
<feFlood flood-opacity="0" result="BackgroundImageFix"/>
<feColorMatrix in="SourceAlpha" type="matrix" values="0 0 0 0 0 0 0 0 0 0 0 0 0 0 0 0 0 0 127 0" result="hardAlpha"/>
<feOffset dx="-10" dy="5"/>
<feGaussianBlur stdDeviation="5"/>
<feComposite in2="hardAlpha" operator="out"/>
<feColorMatrix type="matrix" values="0 0 0 0 0.145098 0 0 0 0 0.145098 0 0 0 0 0.145098 0 0 0 0.2 0"/>
<feBlend mode="normal" in2="BackgroundImageFix" result="effect1_dropShadow_488_312"/>
<feBlend mode="normal" in="SourceGraphic" in2="effect1_dropShadow_488_312" result="shape"/>
</filter>
<filter id="filter1_d_488_312" x="365.613" y="0" width="508" height="720" filterUnits="userSpaceOnUse" color-interpolation-filters="sRGB">
<feFlood flood-opacity="0" result="BackgroundImageFix"/>
<feColorMatrix in="SourceAlpha" type="matrix" values="0 0 0 0 0 0 0 0 0 0 0 0 0 0 0 0 0 0 127 0" result="hardAlpha"/>
<feOffset dx="-10" dy="5"/>
<feGaussianBlur stdDeviation="5"/>
<feComposite in2="hardAlpha" operator="out"/>
<feColorMatrix type="matrix" values="0 0 0 0 0.145098 0 0 0 0 0.145098 0 0 0 0 0.145098 0 0 0 0.2 0"/>
<feBlend mode="normal" in2="BackgroundImageFix" result="effect1_dropShadow_488_312"/>
<feBlend mode="normal" in="SourceGraphic" in2="effect1_dropShadow_488_312" result="shape"/>
</filter>
<filter id="filter2_d_488_312" x="576.145" y="185.668" width="663.482" height="811.116" filterUnits="userSpaceOnUse" color-interpolation-filters="sRGB">
<feFlood flood-opacity="0" result="BackgroundImageFix"/>
<feColorMatrix in="SourceAlpha" type="matrix" values="0 0 0 0 0 0 0 0 0 0 0 0 0 0 0 0 0 0 127 0" result="hardAlpha"/>
<feOffset dx="-10" dy="5"/>
<feGaussianBlur stdDeviation="5"/>
<feComposite in2="hardAlpha" operator="out"/>
<feColorMatrix type="matrix" values="0 0 0 0 0.145098 0 0 0 0 0.145098 0 0 0 0 0.145098 0 0 0 0.2 0"/>
<feBlend mode="normal" in2="BackgroundImageFix" result="effect1_dropShadow_488_312"/>
<feBlend mode="normal" in="SourceGraphic" in2="effect1_dropShadow_488_312" result="shape"/>
</filter>
<linearGradient id="paint0_linear_488_312" x1="11.4407" y1="238.612" x2="462.629" y2="894.228" gradientUnits="userSpaceOnUse">
<stop stop-color="#25F6F7"/>
<stop offset="0.479167" stop-color="#156A74"/>
<stop offset="1" stop-color="#AAD4A1"/>
</linearGradient>
<linearGradient id="paint1_linear_488_312" x1="385.613" y1="5" x2="873.613" y2="705" gradientUnits="userSpaceOnUse">
<stop stop-color="#F96D8B"/>
<stop offset="0.359375" stop-color="#FD72A9"/>
<stop offset="0.697917" stop-color="#CC31E5"/>
<stop offset="1" stop-color="#A7C5D4"/>
</linearGradient>
<linearGradient id="paint2_linear_488_312" x1="1227.5" y1="209.869" x2="756.946" y2="812.539" gradientUnits="userSpaceOnUse">
<stop stop-color="#FFCDC0"/>
<stop offset="0.286458" stop-color="#F18468"/>
<stop offset="0.515625" stop-color="#FFC080"/>
<stop offset="1" stop-color="#F7E379"/>
</linearGradient>
</defs>
</svg>
