<svg width="384" height="310" viewBox="0 0 384 310" fill="none" xmlns="http://www.w3.org/2000/svg">
<g filter="url(#filter0_d_220_2)">
<rect width="148.246" height="208.139" rx="10" transform="matrix(0.967492 -0.252903 0.264854 0.964289 18 71.9541)" fill="url(#paint0_linear_220_2)"/>
</g>
<path d="M56.5316 108.335C56.8442 108.579 57.2979 108.525 57.5185 108.195C58.1823 107.204 58.6605 106.097 58.9275 104.93C59.2479 103.529 59.2562 102.075 58.9517 100.67C58.6472 99.266 58.0374 97.9458 57.1656 96.8033C56.4392 95.8515 55.5458 95.0426 54.531 94.4149C54.1937 94.2063 53.7583 94.345 53.5749 94.6967C53.3916 95.0484 53.53 95.4796 53.8647 95.6924C54.694 96.2198 55.4253 96.8904 56.0238 97.6746C56.7678 98.6496 57.2882 99.7763 57.5481 100.975C57.8079 102.173 57.8008 103.414 57.5274 104.61C57.3074 105.572 56.9194 106.485 56.383 107.308C56.1666 107.641 56.2191 108.09 56.5316 108.335Z" fill="white"/>
<path d="M53.0261 107.697C53.2716 107.888 53.628 107.846 53.8013 107.587C54.3229 106.808 54.6986 105.939 54.9083 105.022C55.1601 103.921 55.1666 102.779 54.9274 101.675C54.6881 100.572 54.209 99.5343 53.5241 98.6368C52.9534 97.889 52.2514 97.2534 51.4541 96.7603C51.1891 96.5964 50.8471 96.7053 50.7031 96.9816C50.559 97.2579 50.6678 97.5966 50.9307 97.7638C51.5823 98.1782 52.1569 98.7051 52.6272 99.3212C53.2117 100.087 53.6206 100.972 53.8247 101.914C54.0289 102.856 54.0233 103.831 53.8085 104.77C53.6357 105.526 53.3308 106.243 52.9093 106.89C52.7393 107.151 52.7806 107.505 53.0261 107.697Z" fill="white"/>
<path d="M49.9918 105.943C50.2398 106.136 50.6012 106.094 50.7633 105.824C51.018 105.401 51.2046 104.939 51.3153 104.455C51.4684 103.785 51.4724 103.09 51.3269 102.419C51.1814 101.748 50.8899 101.117 50.4733 100.571C50.1721 100.176 49.8109 99.8332 49.4038 99.5533C49.1445 99.3751 48.798 99.4861 48.6525 99.7651C48.5071 100.044 48.6189 100.385 48.871 100.573C49.1333 100.769 49.3679 101.001 49.5675 101.262C49.8828 101.675 50.1033 102.153 50.2134 102.661C50.3235 103.168 50.3205 103.694 50.2046 104.201C50.1313 104.522 50.0137 104.83 49.8561 105.117C49.7046 105.393 49.7439 105.749 49.9918 105.943Z" fill="white"/>
<path d="M45.7268 89.1717L43.8729 82.4217L44.792 82.1814L46.4208 88.1118L49.5265 87.3L49.7516 88.1196L45.7268 89.1717ZM53.1184 87.3636C52.6153 87.4951 52.1423 87.5223 51.6994 87.4451C51.2547 87.3615 50.8505 87.1985 50.4866 86.956C50.1274 86.7054 49.8154 86.3873 49.5505 86.0018C49.2921 85.6146 49.0966 85.1799 48.9642 84.6978C48.7824 84.0356 48.7457 83.4113 48.8542 82.8249C48.9674 82.2303 49.2212 81.7195 49.6155 81.2926C50.008 80.8593 50.5365 80.5558 51.2008 80.3821C51.6975 80.2523 52.1672 80.226 52.6101 80.3031C53.0595 80.3786 53.4669 80.5408 53.8326 80.7897C54.1982 81.0386 54.5094 81.3535 54.766 81.7343C55.0291 82.1133 55.2269 82.5439 55.3593 83.0261C55.4918 83.5082 55.5421 83.9808 55.5103 84.4439C55.4849 84.9053 55.3777 85.3329 55.1886 85.7269C54.9978 86.1144 54.7313 86.4528 54.389 86.742C54.045 87.0249 53.6215 87.2321 53.1184 87.3636ZM52.9012 86.5728C53.3978 86.443 53.7812 86.2153 54.0512 85.8898C54.3213 85.5643 54.4846 85.1771 54.541 84.7283C54.6022 84.2713 54.5621 83.7857 54.4209 83.2714C54.3255 82.9243 54.1821 82.6035 53.9906 82.309C53.7991 82.0146 53.5722 81.7673 53.3099 81.5671C53.0457 81.3606 52.7515 81.2204 52.4271 81.1468C52.1091 81.0714 51.7727 81.0801 51.418 81.1728C50.9472 81.2959 50.5735 81.5211 50.297 81.8483C50.0269 82.1738 49.8572 82.5627 49.7878 83.0149C49.7249 83.4654 49.7632 83.9446 49.9027 84.4525C49.998 84.7996 50.1391 85.1245 50.3259 85.427C50.5174 85.7215 50.7452 85.972 51.0093 86.1786C51.2734 86.3851 51.5645 86.5261 51.8824 86.6014C52.2069 86.6751 52.5464 86.6656 52.9012 86.5728ZM59.9851 85.5686C59.4626 85.7052 58.9611 85.6916 58.4806 85.5278C58.0001 85.364 57.5758 85.065 57.2076 84.6307C56.8377 84.1899 56.5601 83.6321 56.3747 82.9571C56.1769 82.2371 56.1255 81.5718 56.2205 80.9613C56.3138 80.3444 56.547 79.8218 56.9202 79.3935C57.2981 78.9571 57.8127 78.6538 58.4642 78.4835C58.8834 78.3739 59.2717 78.3275 59.6289 78.3444C59.9861 78.3613 60.3318 78.4121 60.6662 78.497L60.5368 79.3473C60.2253 79.2702 59.9144 79.2206 59.6042 79.1983C59.3003 79.1744 58.9775 79.2071 58.6356 79.2965C58.2293 79.4027 57.8981 79.6064 57.6421 79.9076C57.3843 80.2023 57.2193 80.5831 57.147 81.0498C57.0812 81.5149 57.1313 82.0496 57.2972 82.6539C57.4456 83.1939 57.6565 83.6348 57.9302 83.9767C58.202 84.3122 58.5146 84.544 58.8678 84.6721C59.221 84.8003 59.5911 84.8138 59.9781 84.7126C60.3393 84.6182 60.6382 84.4608 60.875 84.2404C61.1164 84.012 61.2957 83.7963 61.4128 83.5934L61.0075 82.1181L59.6047 82.4848L59.406 81.7616L61.6796 81.1673L62.6622 84.7448L61.8496 84.9572L61.6642 84.2822C61.4931 84.5405 61.2693 84.7954 60.9928 85.0468C60.7144 85.2918 60.3785 85.4658 59.9851 85.5686ZM66.9977 83.7355C66.4946 83.867 66.0216 83.8942 65.5787 83.817C65.1341 83.7334 64.7298 83.5704 64.366 83.3279C64.0068 83.0773 63.6947 82.7592 63.4299 82.3737C63.1714 81.9865 62.976 81.5519 62.8436 81.0697C62.6617 80.4076 62.625 79.7833 62.7336 79.1968C62.8468 78.6022 63.1005 78.0915 63.4948 77.6645C63.8874 77.2312 64.4158 76.9277 65.0802 76.754C65.5768 76.6242 66.0466 76.5979 66.4895 76.675C66.9388 76.7505 67.3463 76.9127 67.7119 77.1616C68.0775 77.4106 68.3887 77.7254 68.6454 78.1062C68.9085 78.4853 69.1063 78.9159 69.2387 79.398C69.3711 79.8802 69.4214 80.3528 69.3896 80.8158C69.3642 81.2772 69.257 81.7049 69.068 82.0988C68.8771 82.4863 68.6106 82.8247 68.2684 83.114C67.9244 83.3968 67.5008 83.604 66.9977 83.7355ZM66.7805 82.9448C67.2772 82.815 67.6605 82.5873 67.9306 82.2617C68.2007 81.9362 68.3639 81.549 68.4204 81.1002C68.4815 80.6432 68.4415 80.1576 68.3002 79.6433C68.2049 79.2962 68.0615 78.9754 67.87 78.6809C67.6785 78.3865 67.4516 78.1392 67.1892 77.9391C66.9251 77.7325 66.6308 77.5924 66.3064 77.5187C65.9884 77.4433 65.6521 77.452 65.2973 77.5448C64.8265 77.6678 64.4528 77.893 64.1763 78.2202C63.9062 78.5457 63.7365 78.9346 63.6672 79.3868C63.6043 79.8373 63.6425 80.3165 63.782 80.8244C63.8774 81.1715 64.0185 81.4964 64.2053 81.799C64.3967 82.0934 64.6245 82.3439 64.8887 82.5505C65.1528 82.757 65.4438 82.898 65.7618 82.9734C66.0862 83.047 66.4258 83.0375 66.7805 82.9448Z" fill="white"/>
<g filter="url(#filter1_d_220_2)">
<rect x="128.309" y="5" width="144.857" height="207.787" rx="10" fill="url(#paint1_linear_220_2)"/>
</g>
<path d="M157.225 51.7931C157.464 52.1099 157.916 52.1751 158.215 51.9139C159.113 51.1279 159.861 50.183 160.421 49.1247C161.093 47.8545 161.477 46.4519 161.547 45.0165C161.616 43.5811 161.369 42.148 160.822 40.8188C160.367 39.7115 159.713 38.6989 158.896 37.8299C158.624 37.5411 158.167 37.5624 157.899 37.8546C157.631 38.1469 157.653 38.5992 157.921 38.8914C158.586 39.6155 159.119 40.4525 159.494 41.3649C159.96 42.4992 160.171 43.7222 160.112 44.9472C160.053 46.1721 159.725 47.369 159.151 48.453C158.69 49.325 158.079 50.1067 157.348 50.7633C157.052 51.0283 156.987 51.4764 157.225 51.7931Z" fill="white"/>
<path d="M154.005 50.2678C154.193 50.5166 154.548 50.5678 154.782 50.3626C155.488 49.7451 156.076 49.0027 156.516 48.1712C157.044 47.1732 157.346 46.0713 157.4 44.9435C157.455 43.8158 157.26 42.6898 156.831 41.6456C156.473 40.7755 155.96 39.9799 155.317 39.2972C155.104 39.0704 154.745 39.0871 154.535 39.3167C154.324 39.5462 154.341 39.9015 154.552 40.1311C155.074 40.7 155.493 41.3577 155.788 42.0746C156.154 42.9657 156.32 43.9266 156.273 44.8891C156.227 45.8515 155.969 46.7919 155.518 47.6436C155.156 48.3287 154.676 48.9429 154.101 49.4588C153.869 49.667 153.818 50.019 154.005 50.2678Z" fill="white"/>
<path d="M151.528 47.7893C151.717 48.0405 152.077 48.093 152.304 47.8746C152.659 47.5316 152.959 47.1336 153.191 46.6949C153.513 46.0878 153.696 45.4175 153.729 44.7315C153.763 44.0454 153.644 43.3605 153.383 42.7253C153.195 42.2662 152.934 41.8412 152.614 41.4655C152.409 41.2262 152.046 41.2437 151.833 41.4756C151.621 41.7074 151.64 42.0654 151.835 42.3125C152.038 42.5695 152.204 42.8541 152.33 43.1585C152.527 43.6392 152.617 44.1574 152.591 44.6764C152.566 45.1955 152.427 45.7027 152.184 46.162C152.03 46.4529 151.837 46.7201 151.611 46.9564C151.393 47.1836 151.339 47.538 151.528 47.7893Z" fill="white"/>
<path d="M148.854 30.2441V23.2441H149.804V29.3941H153.014V30.2441H148.854ZM156.461 30.3641C155.941 30.3641 155.478 30.2708 155.071 30.0841C154.664 29.8908 154.318 29.6308 154.031 29.3041C153.751 28.9708 153.534 28.5841 153.381 28.1441C153.234 27.7041 153.161 27.2341 153.161 26.7341C153.161 26.0475 153.291 25.4341 153.551 24.8941C153.818 24.3475 154.198 23.9175 154.691 23.6041C155.184 23.2841 155.774 23.1241 156.461 23.1241C156.974 23.1241 157.434 23.2175 157.841 23.4041C158.254 23.5908 158.604 23.8508 158.891 24.1841C159.178 24.5175 159.394 24.9008 159.541 25.3341C159.694 25.7675 159.771 26.2341 159.771 26.7341C159.771 27.2341 159.694 27.7041 159.541 28.1441C159.394 28.5841 159.178 28.9708 158.891 29.3041C158.604 29.6308 158.258 29.8908 157.851 30.0841C157.444 30.2708 156.981 30.3641 156.461 30.3641ZM156.461 29.5441C156.974 29.5441 157.404 29.4208 157.751 29.1741C158.098 28.9275 158.358 28.5941 158.531 28.1741C158.711 27.7475 158.801 27.2675 158.801 26.7341C158.801 26.3741 158.748 26.0275 158.641 25.6941C158.534 25.3608 158.381 25.0641 158.181 24.8041C157.981 24.5375 157.734 24.3275 157.441 24.1741C157.154 24.0208 156.828 23.9441 156.461 23.9441C155.974 23.9441 155.554 24.0675 155.201 24.3141C154.854 24.5608 154.588 24.8941 154.401 25.3141C154.221 25.7341 154.131 26.2075 154.131 26.7341C154.131 27.0941 154.181 27.4441 154.281 27.7841C154.388 28.1175 154.541 28.4175 154.741 28.6841C154.941 28.9508 155.184 29.1608 155.471 29.3141C155.764 29.4675 156.094 29.5441 156.461 29.5441ZM163.558 30.3641C163.018 30.3641 162.538 30.2241 162.118 29.9441C161.698 29.6641 161.368 29.2675 161.128 28.7541C160.888 28.2341 160.768 27.6241 160.768 26.9241C160.768 26.1775 160.895 25.5208 161.148 24.9541C161.402 24.3808 161.765 23.9341 162.238 23.6141C162.718 23.2875 163.295 23.1241 163.968 23.1241C164.402 23.1241 164.788 23.1775 165.128 23.2841C165.468 23.3908 165.788 23.5275 166.088 23.6941L165.738 24.4841C165.458 24.3308 165.172 24.2041 164.878 24.1041C164.592 24.0041 164.272 23.9541 163.918 23.9541C163.498 23.9541 163.125 24.0675 162.798 24.2941C162.472 24.5141 162.212 24.8408 162.018 25.2741C161.832 25.7075 161.738 26.2375 161.738 26.8641C161.738 27.4241 161.825 27.9041 161.998 28.3041C162.172 28.6975 162.412 29.0008 162.718 29.2141C163.025 29.4275 163.378 29.5341 163.778 29.5341C164.152 29.5341 164.482 29.4575 164.768 29.3041C165.062 29.1441 165.292 28.9808 165.458 28.8141V27.2841H164.008V26.5341H166.358V30.2441H165.518V29.5441C165.285 29.7508 165.002 29.9408 164.668 30.1141C164.335 30.2808 163.965 30.3641 163.558 30.3641ZM170.807 30.3641C170.287 30.3641 169.823 30.2708 169.417 30.0841C169.01 29.8908 168.663 29.6308 168.377 29.3041C168.097 28.9708 167.88 28.5841 167.727 28.1441C167.58 27.7041 167.507 27.2341 167.507 26.7341C167.507 26.0475 167.637 25.4341 167.897 24.8941C168.163 24.3475 168.543 23.9175 169.037 23.6041C169.53 23.2841 170.12 23.1241 170.807 23.1241C171.32 23.1241 171.78 23.2175 172.187 23.4041C172.6 23.5908 172.95 23.8508 173.237 24.1841C173.523 24.5175 173.74 24.9008 173.887 25.3341C174.04 25.7675 174.117 26.2341 174.117 26.7341C174.117 27.2341 174.04 27.7041 173.887 28.1441C173.74 28.5841 173.523 28.9708 173.237 29.3041C172.95 29.6308 172.603 29.8908 172.197 30.0841C171.79 30.2708 171.327 30.3641 170.807 30.3641ZM170.807 29.5441C171.32 29.5441 171.75 29.4208 172.097 29.1741C172.443 28.9275 172.703 28.5941 172.877 28.1741C173.057 27.7475 173.147 27.2675 173.147 26.7341C173.147 26.3741 173.093 26.0275 172.987 25.6941C172.88 25.3608 172.727 25.0641 172.527 24.8041C172.327 24.5375 172.08 24.3275 171.787 24.1741C171.5 24.0208 171.173 23.9441 170.807 23.9441C170.32 23.9441 169.9 24.0675 169.547 24.3141C169.2 24.5608 168.933 24.8941 168.747 25.3141C168.567 25.7341 168.477 26.2075 168.477 26.7341C168.477 27.0941 168.527 27.4441 168.627 27.7841C168.733 28.1175 168.887 28.4175 169.087 28.6841C169.287 28.9508 169.53 29.1608 169.817 29.3141C170.11 29.4675 170.44 29.5441 170.807 29.5441Z" fill="white"/>
<g filter="url(#filter2_d_220_2)">
<rect x="244.278" y="58.0605" width="144.857" height="207.787" rx="10" transform="rotate(15.5 244.278 58.0605)" fill="url(#paint2_linear_220_2)"/>
</g>
<path d="M341.363 133.947C341.512 134.314 341.932 134.495 342.288 134.319C343.358 133.793 344.326 133.074 345.14 132.196C346.118 131.143 346.853 129.888 347.291 128.519C347.73 127.151 347.862 125.703 347.678 124.277C347.525 123.09 347.156 121.943 346.591 120.892C346.403 120.542 345.956 120.445 345.622 120.658C345.287 120.87 345.191 121.313 345.375 121.665C345.829 122.536 346.127 123.483 346.254 124.461C346.41 125.677 346.298 126.913 345.924 128.081C345.549 129.249 344.923 130.32 344.088 131.219C343.417 131.942 342.624 132.539 341.748 132.984C341.394 133.163 341.215 133.579 341.363 133.947Z" fill="white"/>
<path d="M338.647 131.639C338.764 131.928 339.094 132.069 339.373 131.932C340.215 131.518 340.975 130.953 341.615 130.264C342.383 129.436 342.96 128.45 343.305 127.375C343.649 126.3 343.753 125.162 343.608 124.042C343.488 123.109 343.198 122.208 342.754 121.382C342.607 121.108 342.256 121.031 341.993 121.198C341.73 121.365 341.655 121.713 341.799 121.989C342.156 122.674 342.39 123.418 342.489 124.186C342.613 125.142 342.524 126.113 342.23 127.031C341.936 127.948 341.444 128.79 340.788 129.496C340.261 130.064 339.638 130.533 338.949 130.883C338.671 131.024 338.531 131.35 338.647 131.639Z" fill="white"/>
<path d="M336.896 128.603C337.014 128.895 337.348 129.039 337.623 128.886C338.055 128.647 338.448 128.34 338.786 127.976C339.253 127.473 339.604 126.873 339.814 126.219C340.023 125.565 340.086 124.873 339.999 124.192C339.935 123.699 339.794 123.222 339.581 122.776C339.446 122.492 339.09 122.415 338.825 122.583C338.559 122.752 338.486 123.103 338.61 123.392C338.739 123.693 338.826 124.011 338.869 124.338C338.935 124.853 338.887 125.377 338.729 125.872C338.57 126.366 338.305 126.82 337.951 127.201C337.727 127.442 337.471 127.65 337.191 127.82C336.922 127.983 336.778 128.311 336.896 128.603Z" fill="white"/>
<path d="M340.428 111.609L342.282 104.859L343.201 105.1L341.572 111.03L344.678 111.842L344.453 112.661L340.428 111.609ZM347.756 113.649C347.253 113.517 346.83 113.31 346.486 113.027C346.143 112.738 345.877 112.4 345.686 112.012C345.503 111.62 345.396 111.192 345.364 110.729C345.339 110.268 345.392 109.796 345.525 109.314C345.707 108.652 345.995 108.093 346.39 107.638C346.792 107.179 347.274 106.86 347.834 106.683C348.396 106.499 349.009 106.494 349.674 106.667C350.17 106.797 350.591 107.004 350.935 107.286C351.285 107.571 351.555 107.91 351.744 108.304C351.933 108.698 352.041 109.123 352.068 109.577C352.102 110.034 352.052 110.503 351.92 110.986C351.788 111.468 351.589 111.902 351.324 112.287C351.066 112.674 350.754 112.992 350.388 113.241C350.024 113.484 349.62 113.647 349.175 113.73C348.732 113.808 348.259 113.78 347.756 113.649ZM347.973 112.858C348.47 112.988 348.919 112.978 349.319 112.828C349.72 112.677 350.06 112.422 350.339 112.061C350.626 111.695 350.84 111.255 350.982 110.74C351.077 110.393 351.117 110.045 351.102 109.697C351.087 109.349 351.017 109.024 350.893 108.722C350.77 108.415 350.587 108.15 350.344 107.928C350.107 107.707 349.811 107.551 349.457 107.458C348.986 107.335 348.547 107.348 348.14 107.496C347.739 107.646 347.392 107.9 347.101 108.258C346.815 108.618 346.603 109.051 346.463 109.559C346.368 109.906 346.324 110.257 346.33 110.61C346.345 110.958 346.414 111.286 346.537 111.594C346.66 111.902 346.84 112.166 347.076 112.386C347.32 112.608 347.619 112.765 347.973 112.858ZM354.623 115.444C354.1 115.307 353.673 115.051 353.341 114.675C353.009 114.298 352.795 113.832 352.698 113.277C352.604 112.715 352.649 112.096 352.835 111.421C353.032 110.701 353.329 110.1 353.724 109.618C354.121 109.129 354.591 108.79 355.134 108.601C355.684 108.407 356.286 108.396 356.937 108.566C357.356 108.676 357.716 108.825 358.017 109.014C358.318 109.203 358.591 109.415 358.837 109.652L358.289 110.325C358.059 110.106 357.815 109.912 357.558 109.741C357.307 109.572 357.011 109.443 356.669 109.354C356.263 109.248 355.871 109.262 355.495 109.398C355.121 109.528 354.783 109.777 354.481 110.146C354.186 110.517 353.955 111.004 353.789 111.609C353.641 112.149 353.597 112.633 353.659 113.063C353.723 113.486 353.875 113.839 354.115 114.122C354.355 114.406 354.669 114.598 355.056 114.699C355.417 114.794 355.756 114.803 356.074 114.728C356.4 114.648 356.666 114.548 356.872 114.43L357.277 112.954L355.874 112.588L356.073 111.864L358.346 112.459L357.364 116.036L356.551 115.824L356.736 115.149C356.456 115.289 356.131 115.401 355.763 115.483C355.396 115.56 355.016 115.547 354.623 115.444ZM361.636 117.277C361.132 117.145 360.709 116.938 360.365 116.655C360.023 116.366 359.756 116.028 359.565 115.64C359.383 115.248 359.275 114.82 359.244 114.357C359.218 113.896 359.272 113.424 359.404 112.942C359.586 112.28 359.874 111.721 360.269 111.266C360.672 110.807 361.153 110.488 361.713 110.311C362.276 110.127 362.889 110.122 363.553 110.296C364.05 110.425 364.47 110.632 364.814 110.915C365.165 111.199 365.434 111.538 365.623 111.932C365.812 112.326 365.92 112.751 365.948 113.206C365.981 113.662 365.932 114.132 365.799 114.614C365.667 115.096 365.468 115.53 365.203 115.915C364.945 116.302 364.633 116.62 364.267 116.869C363.903 117.112 363.499 117.275 363.055 117.358C362.612 117.436 362.139 117.408 361.636 117.277ZM361.853 116.486C362.349 116.616 362.798 116.606 363.199 116.456C363.599 116.306 363.939 116.05 364.218 115.689C364.505 115.323 364.72 114.883 364.861 114.368C364.956 114.021 364.996 113.673 364.982 113.325C364.967 112.977 364.897 112.652 364.772 112.351C364.649 112.043 364.466 111.778 364.223 111.556C363.986 111.335 363.691 111.179 363.336 111.086C362.865 110.963 362.426 110.976 362.019 111.124C361.618 111.275 361.272 111.529 360.98 111.886C360.695 112.246 360.482 112.679 360.343 113.187C360.247 113.534 360.203 113.885 360.21 114.238C360.225 114.586 360.294 114.914 360.416 115.222C360.539 115.53 360.719 115.794 360.956 116.014C361.199 116.236 361.498 116.394 361.853 116.486Z" fill="white"/>
<defs>
<filter id="filter0_d_220_2" x="0.290039" y="31.6631" width="213.973" height="253.797" filterUnits="userSpaceOnUse" color-interpolation-filters="sRGB">
<feFlood flood-opacity="0" result="BackgroundImageFix"/>
<feColorMatrix in="SourceAlpha" type="matrix" values="0 0 0 0 0 0 0 0 0 0 0 0 0 0 0 0 0 0 127 0" result="hardAlpha"/>
<feOffset dx="-10" dy="5"/>
<feGaussianBlur stdDeviation="5"/>
<feComposite in2="hardAlpha" operator="out"/>
<feColorMatrix type="matrix" values="0 0 0 0 0.145098 0 0 0 0 0.145098 0 0 0 0 0.145098 0 0 0 0.2 0"/>
<feBlend mode="normal" in2="BackgroundImageFix" result="effect1_dropShadow_220_2"/>
<feBlend mode="normal" in="SourceGraphic" in2="effect1_dropShadow_220_2" result="shape"/>
</filter>
<filter id="filter1_d_220_2" x="108.309" y="0" width="164.857" height="227.786" filterUnits="userSpaceOnUse" color-interpolation-filters="sRGB">
<feFlood flood-opacity="0" result="BackgroundImageFix"/>
<feColorMatrix in="SourceAlpha" type="matrix" values="0 0 0 0 0 0 0 0 0 0 0 0 0 0 0 0 0 0 127 0" result="hardAlpha"/>
<feOffset dx="-10" dy="5"/>
<feGaussianBlur stdDeviation="5"/>
<feComposite in2="hardAlpha" operator="out"/>
<feColorMatrix type="matrix" values="0 0 0 0 0.145098 0 0 0 0 0.145098 0 0 0 0 0.145098 0 0 0 0.2 0"/>
<feBlend mode="normal" in2="BackgroundImageFix" result="effect1_dropShadow_220_2"/>
<feBlend mode="normal" in="SourceGraphic" in2="effect1_dropShadow_220_2" result="shape"/>
</filter>
<filter id="filter2_d_220_2" x="171.055" y="55.3672" width="210.505" height="254.328" filterUnits="userSpaceOnUse" color-interpolation-filters="sRGB">
<feFlood flood-opacity="0" result="BackgroundImageFix"/>
<feColorMatrix in="SourceAlpha" type="matrix" values="0 0 0 0 0 0 0 0 0 0 0 0 0 0 0 0 0 0 127 0" result="hardAlpha"/>
<feOffset dx="-10" dy="5"/>
<feGaussianBlur stdDeviation="5"/>
<feComposite in2="hardAlpha" operator="out"/>
<feColorMatrix type="matrix" values="0 0 0 0 0.145098 0 0 0 0 0.145098 0 0 0 0 0.145098 0 0 0 0.2 0"/>
<feBlend mode="normal" in2="BackgroundImageFix" result="effect1_dropShadow_220_2"/>
<feBlend mode="normal" in="SourceGraphic" in2="effect1_dropShadow_220_2" result="shape"/>
</filter>
<linearGradient id="paint0_linear_220_2" x1="-0.777484" y1="2.39582" x2="132.33" y2="200.002" gradientUnits="userSpaceOnUse">
<stop stop-color="#25F6F7"/>
<stop offset="0.479167" stop-color="#156A74"/>
<stop offset="1" stop-color="#AAD4A1"/>
</linearGradient>
<linearGradient id="paint1_linear_220_2" x1="128.309" y1="5" x2="273.166" y2="212.787" gradientUnits="userSpaceOnUse">
<stop stop-color="#F96D8B"/>
<stop offset="0.359375" stop-color="#FD72A9"/>
<stop offset="0.697917" stop-color="#CC31E5"/>
<stop offset="1" stop-color="#A7C5D4"/>
</linearGradient>
<linearGradient id="paint2_linear_220_2" x1="378.214" y1="65.814" x2="238.535" y2="244.709" gradientUnits="userSpaceOnUse">
<stop stop-color="#FFCDC0"/>
<stop offset="0.286458" stop-color="#F18468"/>
<stop offset="0.515625" stop-color="#FFC080"/>
<stop offset="1" stop-color="#F7E379"/>
</linearGradient>
</defs>
</svg>
